<?xml version="1.0" encoding="UTF-8" standalone="no"?>
<!-- Created with Inkscape (http://www.inkscape.org/) -->

<svg
   version="1.1"
   id="svg1"
   width="1483.1436"
   height="574.74542"
   viewBox="0 0 1483.1436 574.74542"
   sodipodi:docname="403.svg"
   inkscape:version="1.4.4 (dcaf3e7d9e, 2026-05-05)"
   xmlns:inkscape="http://www.inkscape.org/namespaces/inkscape"
   xmlns:sodipodi="http://sodipodi.sourceforge.net/DTD/sodipodi-0.dtd"
   xmlns="http://www.w3.org/2000/svg"
   xmlns:svg="http://www.w3.org/2000/svg">
  <sodipodi:namedview
     id="namedview1"
     pagecolor="#ffffff"
     bordercolor="#000000"
     borderopacity="0.25"
     inkscape:showpageshadow="2"
     inkscape:pageopacity="0.0"
     inkscape:pagecheckerboard="0"
     inkscape:deskcolor="#d1d1d1"
     inkscape:zoom="1.1304032"
     inkscape:cx="609.51704"
     inkscape:cy="291.0466"
     inkscape:window-width="2518"
     inkscape:window-height="1371"
     inkscape:window-x="0"
     inkscape:window-y="0"
     inkscape:window-maximized="1"
     inkscape:current-layer="svg1" />
  <defs
     id="defs1" />
  <g
     id="g21">
    <g
       id="g18">
      <path
         id="path11"
         style="fill:#000000;stroke-width:1.0031"
         d="M 777.68555,0.91677081 C 676.78918,-1.1455263 572.88976,74.686968 543.70703,222.96309 507.93704,404.70879 592.46425,553.1383 742.25391,571.61226 918.91051,593.39979 1037.0929,408.11997 984.35938,192.05328 953.39917,65.199107 866.71175,2.7364448 777.68555,0.91677081 Z M 766.96484,160.6325 c 6.51539,-0.13217 13.32185,1.40779 20.33204,4.81296 59.8916,29.09207 58.32847,225.88586 -2.01563,253.71079 -38.95342,17.96154 -71.84058,-13.07852 -80.99023,-76.44125 -14.19672,-98.31444 17.06611,-181.15733 62.67382,-182.0825 z" />
      <g
         id="g17">
        <path
           style="fill:#ffffff;stroke-width:1.0031"
           d="m 742.7925,43.444674 c 3.4317,-2.524937 2.34991,-8.183473 -1.67407,-8.756595 -7.64319,-1.088609 -12.23227,2.746879 -9.47936,7.922731 1.60623,3.019936 7.5757,3.466225 11.15343,0.833864 z"
           id="path10" />
        <path
           style="fill:#ffffff;stroke-width:1.0031"
           d="m 613.15513,146.15423 c 1.08958,-1.29131 3.66626,-5.3665 5.72596,-9.05598 18.53605,-33.20304 47.70258,-61.591407 78.3928,-76.3013 14.84794,-7.116649 18.02135,-10.433772 14.29912,-14.946687 -14.0744,-17.064082 -107.98563,67.144797 -107.98563,96.829187 0,5.88486 5.76696,7.97929 9.56775,3.47478 z"
           id="path9" />
        <path
           style="fill:#ffffff;stroke-width:1.0031"
           d="m 593.83668,186.35554 c 2.60354,-1.66578 7.2869,-14.04984 6.50254,-17.19444 -2.40918,-9.65865 -14.08518,0.58226 -14.08518,12.35398 0,3.70244 4.68598,6.6938 7.58264,4.84046 z"
           id="path8" />
      </g>
    </g>
    <g
       id="g20">
      <path
         style="fill:#000000"
         d="m 1232.9208,572.92768 c -46.298,-4.36905 -71.9976,-9.48123 -103.4224,-20.57278 -90.3891,-31.90339 -126.3906,-109.06111 -74.1414,-158.8984 29.444,-28.08475 65.4298,-26.64158 112.5765,4.51473 66.263,43.78907 134.9196,38.54213 134.5894,-10.28572 -0.1777,-26.28063 -19.5864,-37.21207 -69.6021,-39.20157 -50.7217,-2.01757 -67.4536,-11.46647 -76.7143,-43.32236 -11.7711,-40.49126 15.6921,-71.46763 68.7143,-77.5043 50.0578,-5.69917 71.1161,-22.01358 65.0776,-50.41728 -7.229,-34.00299 -50.1236,-30.51043 -109.2077,8.89191 -52.9497,35.31137 -92.0343,34.36505 -115.7114,-2.80161 -45.1113,-70.8127 51.3176,-168.214095 178.5082,-180.308555 172.7058,-16.42246 277.5471,133.790455 170.16,243.799165 -22.5527,23.10321 -22.6836,25.35533 -2.1824,37.53485 103.9794,61.77308 92.5994,206.59229 -20.6443,262.71338 -42.3682,20.99676 -103.4996,31.00162 -158,25.85854 z"
         id="path15" />
      <g
         id="g19">
        <path
           style="fill:#ffffff"
           d="m 1229.4484,41.588673 c 3.1238,-4.45976 0.6165,-7.793858 -5.8609,-7.793858 -6.1864,0 -9.086,3.479508 -6.6667,7.999998 2.026,3.7857 9.8215,3.65743 12.5276,-0.20614 z"
           id="path14" />
        <path
           style="fill:#ffffff"
           d="m 1109.5252,110.54267 c 15.6544,-22.975067 44.1475,-43.562487 75.852,-54.806127 13.8281,-4.90398 17.4429,-13.94173 5.5762,-13.94173 -30.3296,0 -104.9443,58.551297 -94.6452,74.269567 3.3075,5.04795 7.0927,3.46659 13.217,-5.52171 z"
           id="path13" />
        <path
           style="fill:#ffffff"
           d="m 1093.4511,145.60312 c 1.8542,-9.59098 -1.8111,-14.68244 -7.1146,-9.88286 -6.002,5.43176 -4.3232,17.25766 2.3406,16.4878 3.0985,-0.35796 3.7372,-1.24163 4.774,-6.60494 z"
           id="path12" />
        <path
           style="fill:#ffffff"
           d="m 1070.2723,450.43965 c 0.9228,-1.11201 1.9055,-4.754 2.1837,-8.09331 1.3077,-15.69796 15.0609,-28.50388 30.8755,-28.74886 10.1771,-0.15765 14.5501,-6.69774 7.5466,-11.28657 -16.9845,-11.1287 -51.2906,16.13564 -51.2906,40.76257 0,7.34274 6.8086,12.03666 10.6848,7.36617 z"
           id="path2" />
      </g>
    </g>
    <g
       id="g16">
      <path
         id="path7"
         style="fill:#000000"
         d="M 331.20117 0.01953125 C 285.2122 -0.89905549 240.95111 29.83362 176.34375 103.79492 C 7.050049 297.59921 -21.10785 351.54108 12.34375 417.97656 C 34.112329 461.20934 64.870944 467.84336 222.25391 463.25586 C 240.95391 462.7108 256.91808 462.49052 257.72852 462.76562 C 258.68135 463.08907 259.484 471.13201 260 485.5293 C 261.95824 540.16804 283.87347 568.36241 328.59375 573.77148 C 389.61097 581.15172 426.86617 546.22035 426.09961 482.34766 C 425.77569 455.35695 425.32205 456.4669 436.66602 456.4375 C 533.06391 456.18734 536.52207 321.46437 440.25391 316.66016 L 422.91992 315.79492 L 423.23047 283.12891 C 423.4004 265.16224 424.5174 217.76159 425.71289 177.79492 C 429.54753 49.597835 419.99078 23.104602 363.58789 5.5703125 C 352.51989 2.1295413 341.81401 0.23151281 331.20117 0.01953125 z M 261.66602 235.48438 C 262.2099 235.45016 262.70044 235.52655 263.15039 235.69922 C 265.15531 236.46858 265.53395 319.05679 263.54102 320.91016 C 262.72984 321.66454 202.39037 322.71136 198.91992 322.03125 C 187.96702 319.8848 191.70644 312.08813 220.13867 277.79492 C 246.19794 246.36382 256.4085 235.81508 261.66602 235.48438 z " />
      <g
         id="g15">
        <path
           style="fill:#ffffff"
           d="m 322.77885,38.794813 c 3.46685,-5.534748 -6.12602,-10.250838 -11.30939,-5.559958 -2.9604,2.67913 -3.21513,4.693578 -0.88779,7.020918 2.32699,2.32698 10.43264,1.35611 12.19718,-1.46096 z"
           id="path6" />
        <path
           style="fill:#ffffff"
           d="M 151.20295,196.93025 C 221.54044,113.22627 257.50264,74.989163 282.7557,57.055653 c 9.66305,-6.86224 11.64513,-9.87083 8.77852,-13.32489 -8.88425,-10.704868 -48.09468,25.32229 -122.69132,112.730717 -36.47936,42.74459 -40.30759,48.02056 -38.45662,53 2.47947,6.67024 6.93555,3.98777 20.81667,-12.53123 z"
           id="path5" />
        <path
           style="fill:#ffffff"
           d="m 116.15015,238.88815 c 5.15089,-6.01766 6.10314,-10.88175 2.5226,-12.88552 -6.17398,-3.45513 -18.45106,11.89317 -13.48537,16.85885 2.87135,2.87136 6.10813,1.69822 10.96277,-3.97333 z"
           id="path4" />
      </g>
    </g>
  </g>
</svg>
