<?xml version="1.0" encoding="UTF-8" standalone="no"?>
<!-- Created with Inkscape (http://www.inkscape.org/) -->

<svg
   version="1.1"
   id="svg1"
   width="1579.4657"
   height="637.18756"
   viewBox="0 0 1579.4657 637.18756"
   xmlns="http://www.w3.org/2000/svg"
   xmlns:svg="http://www.w3.org/2000/svg">
  <defs
     id="defs1" />
  <g
     id="g1"
     transform="translate(-65.805397,-57.256603)">
    <path
       id="path15"
       style="fill:#000000"
       d="m 1445.25,57.267578 c -39.3359,0.529581 -80.9895,20.2321 -110.0137,61.019532 -6.262,8.8 -36.7797,51.70064 -67.8183,95.33398 -31.0385,43.63333 -67.3328,94.63204 -80.6543,113.33203 -57.636,80.90584 -62.4238,91.2123 -62.5723,134.66797 -0.15,43.90023 14.6365,71.14048 48.3789,89.125 21.5644,11.49369 21.9249,11.52803 120.3399,11.66211 102.4005,0.13951 93.8288,-0.86932 92.7128,10.91016 -0.4673,4.93275 -1.4396,15.26787 -2.1621,22.9668 -4.8741,51.93327 22.6522,87.15279 73.2989,93.78711 61.144,8.0094 96.7218,-28.96297 95.75,-99.5 -0.4887,-35.46946 -2.1642,-32.23919 17.3398,-33.41016 101.8672,-6.11589 99.9344,-148.21516 -2.0918,-153.78516 -20.3851,-1.1129 -18.5419,9.42357 -15.7754,-90.18554 3.9177,-141.06172 4.0589,-154.72115 1.7344,-166.94922 C 1542.569,87.600137 1495.8247,56.586688 1445.25,57.267578 Z m -61.5039,226.164062 c 2.4593,-0.10516 4.7391,0.63875 6.7676,2.23438 5.4034,4.25035 5.1842,114.35294 -0.2364,118.74023 -3.3851,2.73989 -74.5197,3.86482 -80.8984,1.2793 -10.3911,-4.21193 -8.9927,-12.14638 6.0645,-34.41797 28.5219,-42.1877 57.661,-83.14455 60.457,-84.97656 2.7469,-1.79983 5.3864,-2.75422 7.8457,-2.85938 z" />
    <g
       id="g17">
      <path
         style="fill:#ffffff"
         d="m 1352.0469,162.12011 c 1.1951,-0.45859 4.6359,-4.50859 7.6462,-9 17.1264,-25.55209 32.0373,-40.59299 47.4261,-47.83942 9.9071,-4.66512 12.1218,-7.708025 9.0369,-12.416175 -8.164,-12.45983 -36.298,7.262815 -62.555,43.852675 -13.8107,19.24557 -14.4912,30.36729 -1.5542,25.40292 z"
         id="path14" />
      <path
         style="fill:#ffffff"
         d="m 1332.1625,192.60017 c 8.5193,-5.94518 7.9785,-20.31175 -0.6794,-18.04767 -2.6615,0.696 -9.391,10.31503 -9.391,13.42333 0,3.94175 6.6637,7.00172 10.0704,4.62434 z"
         id="path13" />
      <path
         style="fill:#ffffff"
         d="m 1442.0921,658.95392 c 4.8649,-4.86492 3.3402,-7.63612 -8,-14.54062 -7.8294,-4.76694 -13.0423,-14.18408 -14.4849,-26.16746 -1.1033,-9.16461 -2.5395,-11.23521 -7.8177,-11.2715 -16.9914,-0.11684 -1.5088,41.97971 18.9422,51.50314 8.1343,3.78786 8.0524,3.78443 11.3604,0.47644 z"
         id="path11" />
    </g>
    <path
       id="path10"
       style="fill:#000000"
       d="m 408.49805,58.189453 c -36.14655,-1.759577 -73.53545,10.838962 -97.45899,38.513672 -3.92257,4.537605 -13.4262,16.349995 -21.11914,26.249995 -7.69293,9.90001 -23.58428,30.30066 -35.31445,45.33399 -51.38882,65.8597 -149.74191,195.33186 -160.031251,210.66601 -53.11363,79.15509 -30.457254,162.90284 49.623051,183.42969 16.01292,4.10456 35.32682,4.29063 133.89453,1.29688 72.50487,-2.20215 68.00626,-2.94093 65.3457,10.74804 -12.32215,63.39921 13.77102,107.64787 67.98828,115.29688 62.55958,8.82594 98.56113,-28.45262 96.9668,-100.4082 -0.75087,-33.88835 -2.17794,-31.07306 16.36719,-32.26563 100.55585,-6.46641 96.9634,-153.83517 -3.75586,-154.07422 -14.21172,-0.0337 -14.91225,-0.64917 -14.90625,-13.07031 0.005,-11.20243 3.96607,-101.96001 7.46093,-170.95313 3.51321,-69.35525 1.05597,-87.82518 -15.05468,-113.12304 C 479.55037,76.068161 444.64459,59.94903 408.49805,58.189453 Z M 345.01172,282.19141 c 2.44119,0.16422 4.50873,1.9142 6.70508,4.86914 3.31162,4.45539 1.0794,110.02818 -2.44336,115.56054 -1.91026,3 -1.90959,3 -41.93946,3 -62.70763,0 -62.83734,3.40289 3.3086,-87.24609 19.45705,-26.66471 28.13055,-36.60327 34.36914,-36.18359 z" />
    <g
       id="g15">
      <path
         style="fill:#ffffff"
         d="m 326.8908,143.28725 c 15.85843,-21.38187 26.13124,-31.09379 39.97971,-37.79683 12.06128,-5.837995 14.14836,-8.572755 10.63481,-13.935115 -7.53215,-11.4955 -38.51156,9.993935 -61.60284,42.731945 -11.18695,15.86048 -11.84199,17.4023 -9.14317,21.52121 4.24596,6.48016 7.57374,4.41037 20.13149,-12.52121 z"
         id="path9" />
      <path
         style="fill:#ffffff"
         d="m 297.37742,183.31107 c 5.22992,-7.69653 3.98774,-13.69048 -2.8372,-13.69048 -3.44457,0 -9.7814,8.2338 -9.7814,12.70951 0,7.431 7.82246,8.03912 12.6186,0.98097 z"
         id="path8" />
      <path
         style="fill:#ffffff"
         d="m 400.78577,657.57022 c 2.15938,-4.03483 0.38269,-7.68324 -5.1239,-10.52182 -10.70637,-5.51901 -17.46879,-15.95575 -18.5597,-28.64401 -0.82052,-9.54337 -2.01013,-11.45047 -7.14254,-11.45047 -16.45783,0 -3.77308,40.22997 15.97538,50.66628 6.55992,3.46667 12.98027,3.44506 14.85076,-0.05 z"
         id="path6" />
    </g>
    <path
       id="path5"
       style="fill:#000000"
       d="m 880.21094,59.625 c -15.0069,-0.369488 -30.41716,0.910442 -46.11914,3.931641 -282.49749,54.354999 -287.5458,582.769649 -6,628.029299 184.0999,29.59484 317.3391,-174.95551 269.2129,-413.29883 C 1070.5159,145.61594 985.25923,62.211417 880.21094,59.625 Z m -15.87305,153.33203 c 2.96276,-0.0589 5.98432,0.15949 9.06055,0.66016 91.08448,14.82437 89.55794,304.76529 -1.70508,323.85937 C 818.63835,548.57674 783.9693,481.62387 786.5,372.95312 c 2.24093,-96.22778 33.39646,-159.11207 77.83789,-159.99609 z" />
    <g
       id="g16">
      <path
         style="fill:#ffffff"
         d="m 830.17981,109.57367 c 3.5243,-1.88615 3.47504,-8.71305 -0.0766,-10.613825 -6.35104,-3.39897 -15.62699,2.892525 -13.26053,8.994075 1.29195,3.33112 8.50302,4.20689 13.33712,1.61975 z"
         id="path4" />
      <path
         style="fill:#ffffff"
         d="m 704.09215,206.52556 c 27.34715,-43.94933 50.37362,-66.80676 81.88525,-81.28408 13.49104,-6.19817 16.31612,-9.89572 11.35285,-14.85899 -17.43304,-17.433035 -121.52537,82.5742 -104.97833,100.85847 3.53091,3.90161 7.32711,2.37689 11.74023,-4.7154 z"
         id="path3" />
      <path
         style="fill:#ffffff"
         d="m 687.21311,241.08302 c 3.93954,-8.25224 2.58795,-12.79577 -3.80642,-12.79577 -6.09256,0 -11.96335,14.15119 -7.65724,18.4573 3.51557,3.51558 8.18305,1.21046 11.46366,-5.66153 z"
         id="path2" />
    </g>
  </g>
</svg>
