<?xml version="1.0" encoding="UTF-8" standalone="no"?>
<!-- Created with Inkscape (http://www.inkscape.org/) -->

<svg
   version="1.1"
   id="svg1"
   width="1846.8374"
   height="511.49994"
   viewBox="0 0 1846.8373 511.49994"
   xmlns="http://www.w3.org/2000/svg"
   xmlns:svg="http://www.w3.org/2000/svg">
  <defs
     id="defs1" />
  <g
     id="g1"
     transform="translate(-43.840761,-99.232482)">
    <path
       style="fill:#000000"
       d="m 1455.1014,285.60023 c -33.21,-5.77278 -56,-31.52211 -56,-63.27193 0,-39.69001 30.8028,-68.98293 74.6667,-71.00666 32.5324,-1.50095 58.1531,12.23882 70.2258,37.66051 4.4029,9.27124 4.9536,11.66473 5.4974,23.89081 1.0415,23.41899 -3.861,37.08268 -18.5299,51.64414 -18.0978,17.96526 -47.2257,26.06052 -75.86,21.08313 z"
       id="path30" />
    <g
       id="g33">
      <path
         style="fill:#ffffff"
         d="m 1430.3043,220.89683 c 1.133,-1.133 2.6611,-4.29223 3.3957,-7.0205 3.4861,-12.94616 13.0262,-22.20732 28.2909,-27.46373 8.9192,-3.0713 11.6644,-6.61017 8.4927,-10.94779 -4.9415,-6.75791 -28.3054,2.25799 -38.5996,14.89522 -5.855,7.18764 -11.4492,19.34194 -11.4492,24.87517 0,3.22476 3.5591,7.72164 6.1114,7.72164 0.9339,0 2.6251,-0.92701 3.7581,-2.06001 z"
         id="path29" />
      <path
         style="fill:#ffffff"
         d="m 1431.7681,238.29017 c 0,-3.3719 -0.5206,-4 -3.3151,-4 -2.1379,0 -3.4799,0.85619 -3.7794,2.41122 -0.779,4.04503 0.8709,6.47254 4.0885,6.01563 2.3562,-0.33459 3.006,-1.29147 3.006,-4.42685 z"
         id="path28" />
    </g>
    <path
       style="fill:#000000"
       d="m 1618.7983,606.21685 c -16.6013,-4.02431 -30.6626,-14.71198 -37.7455,-28.68943 -8.4993,-16.77253 -11.7602,-50.35973 -11.7059,-120.57059 0.082,-106.52875 5.9715,-138.3873 29.483,-159.4937 12.3228,-11.06226 25.8383,-15.79878 45.1527,-15.8238 26.0721,-0.0338 44.6666,11.61664 49.9839,31.3175 0.7917,2.93334 1.6876,6.17589 1.991,7.20567 0.36,1.22234 3.8945,-1.42865 10.181,-7.63615 12.0873,-11.93528 16.4677,-15.18846 29.0287,-21.55873 18.307,-9.28434 27.2936,-11.34816 49.2676,-11.31456 21.6716,0.0331 28.1964,1.43523 45.3333,9.74149 12.8971,6.25125 29.3177,22.12872 36.7788,35.56228 14.5524,26.2015 20.3145,56.28442 23.348,121.89641 2.3903,51.69929 -0.8143,100.42495 -7.9294,120.56812 -9.8221,27.80659 -34.747,42.396 -69.2169,40.51517 -15.2107,-0.82996 -25.6045,-4.09708 -35.0183,-11.00749 -18.9441,-13.90623 -23.6577,-33.56359 -19.3362,-80.63888 4.3954,-47.88119 2.5446,-85.62846 -4.8475,-98.8602 -11.0376,-19.75738 -33.18,-11.16072 -43.7043,16.96793 -6.0607,16.19871 -7.2434,28.84605 -7.0331,75.20703 0.22,48.47699 -0.6152,55.8431 -7.8764,69.46638 -7.2181,13.54256 -22.3528,24.15631 -39.5637,27.74541 -9.4522,1.97114 -27.1631,1.68063 -36.5708,-0.59986 z"
       id="path27" />
    <g
       id="g35">
      <path
         style="fill:#ffffff"
         d="m 1771.0483,307.68755 c 2.5626,-3.08782 1.1382,-6.73072 -2.6318,-6.73072 -2.4796,0 -3.4285,0.80205 -3.765,3.18255 -0.6673,4.71894 3.5046,7.033 6.3968,3.54817 z"
         id="path26" />
      <path
         style="fill:#ffffff"
         d="m 1721.6699,333.72394 c 6.2562,-6.39994 16.2513,-13.53477 23.3934,-16.69887 7.7107,-3.41604 10.4378,-6.14208 9.2474,-9.24408 -2.5179,-6.56163 -18.4067,-0.63226 -32.513,12.13322 -9.1695,8.2979 -11.1993,11.3573 -10.0136,15.09299 1.1979,3.77418 5.4862,3.21753 9.8858,-1.28326 z"
         id="path25" />
      <path
         style="fill:#ffffff"
         d="m 1607.2281,344.6235 c 1.0303,-1.28333 3.3474,-5.26003 5.149,-8.8371 4.3852,-8.70663 13.6163,-17.72389 20.1474,-19.68064 6.5105,-1.95059 8.4502,-4.14936 7.3894,-8.37608 -1.0579,-4.21487 -4.9324,-5.37489 -11.1667,-3.34326 -10.6148,3.45912 -20.7439,12.47268 -26.1132,23.23708 -4.9876,9.99932 -5.6017,13.64369 -2.8173,16.72039 2.9221,3.22883 4.9813,3.30652 7.4114,0.27961 z"
         id="path24" />
      <path
         style="fill:#ffffff"
         d="m 1601.7212,369.71115 c 3.4837,-6.50933 -0.5109,-13.07614 -5.3114,-8.73168 -1.453,1.31486 -2.6417,3.23711 -2.6417,4.27167 0,3.08296 2.6228,7.03902 4.6667,7.03902 1.0484,0 2.5273,-1.16055 3.2864,-2.57901 z"
         id="path23" />
    </g>
    <path
       style="fill:#000000"
       d="m 1449.465,606.21685 c -23.0474,-5.5869 -37.5638,-20.66657 -42.9276,-44.59336 -8.712,-38.86283 -9.5608,-167.94814 -1.3752,-209.14331 7.1072,-35.768 33.4687,-57.40379 70.0593,-57.5002 9.9796,-0.0263 26.2609,3.74983 34.6742,8.04195 8.7418,4.45975 18.9985,14.9869 23.6537,24.27736 8.7861,17.53496 8.6254,15.55915 8.918,109.65754 0.3295,105.98998 -0.6609,119.42786 -10.2351,138.87585 -7.4835,15.20122 -23.6025,27.02889 -42.1965,30.96266 -9.5037,2.01062 -31.1642,1.70176 -40.5708,-0.57849 z"
       id="path22" />
    <g
       id="g34"
       style="fill:#ffffff">
      <path
         style="fill:#ffffff"
         d="m 1434.6841,359.24299 c 0.8704,-0.55348 2.7913,-3.82611 4.2686,-7.27251 3.5721,-8.33338 12.0941,-17.36678 19.1199,-20.2673 11.091,-4.5788 13.453,-6.98243 10.8875,-11.07968 -3.685,-5.88532 -19.6099,-1.24874 -29.4262,8.56749 -5.3975,5.39757 -12.4325,18.53846 -12.4325,23.22328 0,5.98315 3.6885,9.30488 7.5827,6.82872 z"
         id="path21" />
      <path
         style="fill:#ffffff"
         d="m 1431.1932,378.08704 c 1.5374,-4.16499 -1.7549,-8.31559 -5.0137,-6.32063 -3.054,1.86964 -3.782,5.40232 -1.6441,7.97832 2.2089,2.66164 5.3522,1.87901 6.6578,-1.65769 z"
         id="path20" />
    </g>
    <path
       style="fill:#000000"
       d="m 940.86382,606.25423 c -23.7331,-6.3951 -37.0256,-21.26601 -42.296,-47.31819 -3.723,-18.40345 -5.1297,-46.74192 -5.1282,-103.31254 0,-86.07453 2.9738,-115.92758 13.7045,-137.67992 12.0955,-24.51918 31.325,-36.28843 59.2906,-36.28843 18.7497,0 29.2919,3.59163 40.35348,13.74811 6.5128,5.97981 13.6438,19.15967 13.6455,25.22024 0,4.79858 1.8732,4.64042 5.6278,-0.47552 4.8319,-6.5839 21.788,-19.53396 32.8682,-25.10277 27.8493,-13.99679 53.9973,-15.39771 76.952,-4.12283 11.1398,5.47162 24.389,17.9221 29.7245,27.93262 3.908,7.33205 6.8285,10.23765 6.8285,6.79349 0,-2.10753 17.3957,-19.96749 24.7499,-25.4105 17.2395,-12.75924 37.3372,-19.76186 59.9168,-20.87669 60.9804,-3.0108 101.2276,36.1741 112.5666,109.59553 7.3854,47.82136 8.4494,132.36671 2.0846,165.63277 -2.7261,14.24825 -9.9359,28.90688 -17.9048,36.40347 -28.5955,26.9005 -85.0906,21.52556 -100.8611,-9.5959 -7.5826,-14.96357 -8.8009,-30.59681 -5.2296,-67.10701 2.24,-22.90058 2.6022,-58.96199 0.7084,-70.52645 -3.1625,-19.31167 -9.0862,-30.32208 -17.2818,-32.12215 -4.4327,-0.97358 -12.5367,2.03349 -17.191,6.37891 -5.0797,4.74266 -9.3528,13.09923 -12.4687,24.38458 -2.7656,10.01654 -2.9181,13.29091 -3.005,64.55178 -0.089,52.68952 -0.1645,54.19395 -3.1014,61.9923 -9.1863,24.3926 -28.0506,37.29466 -56.9829,38.97293 -28.2914,1.64109 -49.1195,-9.24972 -58.5739,-30.6277 -5.7898,-13.09164 -6.6869,-26.44261 -4.0654,-60.50231 3.7154,-48.27285 1.7969,-81.32737 -5.5443,-95.52369 -2.3065,-4.46034 -9.1856,-8.96622 -13.6992,-8.97321 -4.3306,-0.007 -13.4642,5.5136 -16.9409,10.23895 -12.2749,16.68359 -15.526,37.49097 -14.9101,95.42475 0.3446,32.40463 0.079,38.82557 -1.9,45.97751 -6.5123,23.53211 -20.1088,37.02343 -42.67398,42.34361 -10.4033,2.4528 -30.1129,2.43988 -39.2631,-0.0257 z"
       id="path19" />
    <g
       id="g32">
      <path
         style="fill:#ffffff"
         d="m 1257.6695,307.14102 c 1.7078,-3.19097 -1.0982,-7.33317 -4.5133,-6.66251 -3.7359,0.73369 -5.5937,4.48739 -3.4809,7.03323 2.3672,2.85222 6.3687,2.66666 7.9942,-0.37072 z"
         id="path18" />
      <path
         style="fill:#ffffff"
         d="m 1095.1942,311.51174 c 1.2718,-1.53248 1.3682,-2.72118 0.3512,-4.33334 -1.783,-2.82663 -5.7486,-2.86331 -7.5109,-0.0695 -3.1825,5.04539 3.3119,9.03911 7.1597,4.4028 z"
         id="path17" />
      <path
         style="fill:#ffffff"
         d="m 1203.4085,334.49467 c 7.6023,-7.68279 12.2811,-11.06466 21.6929,-15.67993 9.5175,-4.6671 12.0931,-6.54007 12.45,-9.05371 1.8551,-13.06546 -29.3763,0.52168 -43.6114,18.97302 -3.0279,3.92468 -5.5053,7.86979 -5.5053,8.76693 0,2.43343 2.5796,6.78919 4.0208,6.78919 0.6931,0 5.622,-4.40798 10.953,-9.7955 z"
         id="path16" />
      <path
         style="fill:#ffffff"
         d="m 1047.8092,336.53661 c 6.0844,-5.92964 12.3515,-10.51726 18.0373,-13.20367 10.2653,-4.85014 13.064,-7.59254 11.0431,-10.8212 -4.1466,-6.62493 -19.0891,-0.43483 -33.4549,13.85906 -9.7517,9.7029 -11.7166,14.00277 -8.0666,17.6527 2.3532,2.35321 2.3298,2.36726 12.4411,-7.48689 z"
         id="path15" />
      <path
         style="fill:#ffffff"
         d="m 931.76802,343.11438 c 11.8756,-19.245 13.189,-20.75241 21.8209,-25.04504 10.5183,-5.23078 11.3902,-6.0954 10.3451,-10.25935 -2.051,-8.1719 -16.053,-4.51274 -27.8417,7.27588 -11.8557,11.85576 -17.1119,25.24736 -12.0882,30.79842 2.857,3.15701 4.4593,2.58536 7.7639,-2.76991 z"
         id="path14" />
      <path
         style="fill:#ffffff"
         d="m 925.23332,368.90599 c 0.9439,-3.76067 -0.4368,-8.61583 -2.4501,-8.61583 -1.9932,0 -6.3485,4.05444 -6.3485,5.90998 0,0.82317 0.9164,2.80505 2.0365,4.40417 2.4341,3.47519 5.6674,2.66314 6.7621,-1.69832 z"
         id="path13" />
    </g>
    <path
       id="path12"
       style="fill:#000000"
       d="m 804.23242,153.74219 c -19.15342,-0.0458 -38.7265,6.98619 -52.88281,21.72851 -20.37499,21.21843 -27.35446,54.1545 -22.89063,108.03711 0.72377,8.73682 1.04268,16.1585 0.70899,16.49219 -0.33369,0.33369 -4.98424,-0.94395 -10.33594,-2.83984 -51.56758,-18.26821 -104.67762,-5.84058 -143.69336,33.625 -23.26943,23.53773 -40.02069,56.7023 -47.58984,94.2207 -3.45829,17.14201 -3.42859,59.35654 0.0527,75.28516 6.77594,31.00297 18.83338,54.37472 38.32227,74.2871 18.26745,18.66443 44.08235,31.35179 71.17773,34.98243 34.82573,4.66647 77.96201,-4.92119 103.98047,-23.10938 4.95058,-3.46071 9.12443,-6.11174 9.27735,-5.89258 0.15293,0.21917 1.66122,2.69676 3.35156,5.50586 7.79142,12.94812 23.99501,20.8775 44.73242,21.89258 28.3748,1.38892 49.59863,-9.52871 61.11133,-31.4375 9.673,-18.40781 11.77959,-39.14617 8.21679,-80.89648 -4.9225,-57.68405 -4.25663,-122.85922 2.16407,-212 4.0168,-55.76644 2.56363,-77.80978 -6.32227,-95.95703 -10.82514,-22.10782 -34.75504,-33.86495 -59.38086,-33.92383 z M 693.46094,398.95898 c 17.23796,-0.6245 34.71253,8.22251 39.57226,22.33594 6.1099,17.74414 5.70983,47.43239 -0.85937,63.78711 -3.54789,8.83284 -11.26036,15.10891 -22.77149,18.52735 -7.0678,2.09891 -23.20569,2.52637 -28.96679,0.76757 -19.12602,-5.83896 -31.66303,-23.3872 -33.00977,-46.20703 -1.49804,-25.38365 9.3486,-45.81045 29.35156,-55.27344 5.21758,-2.46833 10.93761,-3.72933 16.6836,-3.9375 z" />
    <g
       id="g31">
      <path
         style="fill:#ffffff"
         d="m 758.0115,237.95683 c 1.09453,-1.28333 2.72661,-5.76572 3.62684,-9.96086 3.89248,-18.13921 15.08886,-32.22691 29.13059,-36.65318 7.67418,-2.41907 11.66813,-6.42448 10.20585,-10.23512 -1.41315,-3.68263 -4.91588,-4.74918 -11.06191,-3.36826 -20.06739,4.50885 -36.38632,23.69879 -40.38553,47.49061 -1.47971,8.80295 -1.40836,9.83461 0.85296,12.33333 3.02227,3.33958 5.03022,3.44311 7.6312,0.39348 z"
         id="path11" />
      <path
         style="fill:#ffffff"
         d="m 754.83473,265.35683 c 4.03261,-4.03261 -0.0156,-14.03874 -4.25591,-10.51958 -2.85518,2.36959 -3.3849,6.32499 -1.25443,9.36666 2.21788,3.16647 3.27551,3.38775 5.51034,1.15292 z"
         id="path10" />
      <path
         style="fill:#ffffff"
         d="m 678.43473,314.94941 c 0,-1.6694 -1.05,-3.6976 -2.33333,-4.50711 -4.88636,-3.08223 -10.33845,4.59666 -5.68145,8.00194 3.25551,2.38048 8.01478,0.30521 8.01478,-3.49483 z"
         id="path9" />
      <path
         style="fill:#ffffff"
         d="m 576.45294,378.58109 c 1.11001,-0.89334 5.09502,-5.52426 8.85558,-10.29093 16.58335,-21.02012 36.20513,-35.20333 58.28854,-42.13273 9.80965,-3.07809 13.16376,-7.15698 9.35031,-11.3708 -3.27873,-3.62295 -10.21395,-2.75232 -24.08967,3.02415 -20.51566,8.54069 -42.94745,27.04495 -54.82897,45.2291 -6.20068,9.48986 -6.60476,11.25678 -3.38736,14.81196 2.57119,2.84113 3.10435,2.90803 5.81157,0.72925 z"
         id="path8" />
      <path
         style="fill:#ffffff"
         d="m 564.4548,406.57658 c 0.011,-0.15753 0.85393,-2.68257 1.87309,-5.6112 2.09625,-6.02371 0.85402,-10.00855 -3.12006,-10.00855 -2.86257,0 -6.51033,5.01945 -7.59726,10.45412 -1.00056,5.00279 2.50533,8.83379 6.25008,6.82966 1.41574,-0.75768 2.58311,-1.50649 2.59415,-1.66403 z"
         id="path7" />
    </g>
    <path
       id="path5"
       style="fill:#000000"
       d="m 286.63867,99.318359 c -45.1007,1.368871 -91.50366,19.074841 -128.27734,51.224611 -60.119071,52.5597 -98.271254,144.08299 -112.169924,269.08008 -2.79381,25.12605 -3.197322,90.16801 -0.669922,108 6.97733,49.22847 25.719611,72.13854 66.468746,81.24414 6.79993,1.51946 14.86032,1.91381 31.77735,1.55859 19.88346,-0.4175 24.13577,-0.91484 34.63086,-4.05273 29.82307,-8.91668 46.92813,-25.56594 55.55859,-54.08203 2.82084,-9.32041 3.03084,-12.47755 3.08594,-46.44922 0.069,-42.53031 -0.83301,-40.05948 15.72461,-43.06446 12.90959,-2.34294 52.31507,-2.32956 64.05078,0.0215 15.79759,3.16477 15.02017,0.96487 14.52148,41.05469 -0.37323,30.00399 -0.0936,36.07763 2.16797,47.14843 5.79467,28.36539 20.23272,44.89825 47.33789,54.20508 10.21275,3.50665 12.30979,3.74831 32.25586,3.72461 16.43605,-0.0195 23.32285,-0.57972 30,-2.4375 28.94997,-8.05474 47.92056,-27.24251 56.52735,-57.17383 6.03786,-20.99753 8.78813,-65.86726 6.23242,-101.69726 C 498.90124,350.04541 478.81367,268.06619 446.10547,203.74219 423.16822,158.63376 397.5686,130.91838 364.05273,114.9082 340.29114,103.55754 313.69909,98.497039 286.63867,99.318359 Z m 1.12891,148.304691 c 10.4501,0 12.98398,0.4839 19.61914,3.74218 19.59167,9.62075 29.93225,32.59175 31.32617,69.5918 0.78892,20.94095 -0.55614,28.80982 -5.47266,32.03125 -1.6989,1.11316 -7.72632,2.91122 -13.39648,3.9961 -20.12924,3.85136 -69.3264,1.95727 -82.37109,-3.17188 -4.98093,-1.95849 -5.50237,-5.1499 -4.67774,-28.64258 1.39925,-39.86334 12.50456,-63.47377 34.67578,-73.71484 7.19258,-3.32231 9.89357,-3.83203 20.29688,-3.83203 z" />
    <g
       id="g30">
      <path
         style="fill:#ffffff"
         d="m 282.76805,130.5866 c 2.25809,-1.74724 2.09609,-4.34318 -0.42858,-6.86785 -2.72776,-2.72777 -4.92974,-2.64555 -8.59309,0.32086 -6.9426,5.62178 1.91246,12.04787 9.02167,6.54699 z"
         id="path4" />
      <path
         style="fill:#ffffff"
         d="m 109.07251,272.79522 c 1.18889,-1.18889 4.60818,-7.03889 7.59843,-13 19.73112,-39.33433 45.05568,-71.09504 73.71339,-92.44739 12.20344,-9.09256 31.65475,-19.12624 47.38371,-24.44221 13.03528,-4.40559 19.25528,-8.86345 17.76949,-12.73536 -2.22786,-5.80572 -11.96066,-4.57384 -34.43615,4.35857 -42.62933,16.94213 -80.26429,53.36573 -107.21218,103.76134 -10.96682,20.50919 -14.223669,31.36416 -10.52116,35.06666 2.11912,2.11912 3.12252,2.02034 5.70447,-0.56161 z"
         id="path3" />
      <path
         style="fill:#ffffff"
         d="m 98.009781,305.28482 c 3.431899,-7.19677 4.043739,-12.09883 1.87478,-15.0206 -1.57057,-2.11568 -2.43979,-2.34799 -4.37176,-1.16844 -3.50735,2.14138 -7.62667,12.82719 -6.56912,17.04078 1.30821,5.21233 6.40257,4.73373 9.0661,-0.85174 z"
         id="path2" />
    </g>
  </g>
</svg>
