<?xml version="1.0" encoding="UTF-8" standalone="no"?>
<!-- Created with Inkscape (http://www.inkscape.org/) -->

<svg
   version="1.1"
   id="svg1"
   width="2463.114"
   height="648.84259"
   viewBox="0 0 2463.114 648.84259"
   xmlns="http://www.w3.org/2000/svg"
   xmlns:svg="http://www.w3.org/2000/svg">
  <defs
     id="defs1" />
  <g
     id="g1"
     transform="translate(-48.733833,-60.214382)">
    <path
       style="fill:#000000"
       d="m 2291.3333,568.55141 c -28.7457,-6.07213 -52.2398,-26.78376 -63.4729,-55.95561 -9.1546,-23.77418 -12.483,-46.86514 -12.3755,-85.85546 0.2199,-79.70691 15.9699,-139.8386 40.7195,-155.46238 23.5931,-14.89364 59.1992,-11.49167 73.6334,7.03526 10.2544,13.16197 11.215,28.05831 4.2908,66.53986 -6.4473,35.8316 -7.8273,48.03912 -7.8246,69.2206 0,33.89568 6.9489,50.67305 22.9608,55.47033 6.7889,2.03399 13.1906,0.69206 19.9063,-4.17273 10.8227,-7.83996 16.9686,-20.28487 20.8962,-42.3129 2.2466,-12.60042 2.4715,-50.00193 0.5097,-84.75419 -0.4459,-33.03735 -0.2243,-75.53141 41.2279,-76.50087 17.5629,-0.13255 35.848,0.51192 50.1812,11.87006 10.9253,9.61684 15.7848,19.98542 20.4968,43.73365 13.3738,67.40278 12.3457,147.76027 -2.5834,201.92882 -9.0105,32.69362 -22.1008,46.30514 -48.2761,50.19823 -11.9516,1.77758 -27.0253,0.10858 -36.3759,-4.02763 -7.5558,-3.34233 -16.7767,-11.98715 -20.7256,-19.43084 -1.7512,-3.30105 -3.6687,-6.00191 -4.2611,-6.00191 -0.5924,0 -4.7934,3.03202 -9.3356,6.73782 -11.1792,9.12066 -32.2714,19.33759 -45.2023,21.89572 -12.7308,2.51854 -32.0501,2.45073 -44.3896,-0.15581 z"
       id="path31" />
    <g
       id="g36">
      <path
         style="fill:#ffffff"
         d="m 2422.7479,307.44279 c 2.4227,-5.12755 6.2105,-10.45626 9.3317,-13.1279 2.8895,-2.47336 5.2537,-5.36947 5.2537,-6.43579 0,-5.37906 -7.3709,-6.73196 -14.1513,-2.59739 -7.3333,4.47169 -13.3977,21.49393 -9.9515,27.93309 2.601,4.86009 5.2543,3.25098 9.5174,-5.77201 z"
         id="path30" />
      <path
         style="fill:#ffffff"
         d="m 2265.9975,308.67424 c 3.5063,-4.91364 8.7715,-10.20421 12.668,-12.72905 4.5648,-2.95793 6.6678,-5.217 6.6678,-7.16274 0,-10.28953 -16.4367,-6.53623 -25.1861,5.75123 -5.8142,8.16518 -8.5445,20.6094 -5.2456,23.90827 2.0761,2.07605 3.6045,0.73059 11.0959,-9.76771 z"
         id="path29" />
      <path
         style="fill:#ffffff"
         d="m 2417.3333,327.40701 c 0,-2.07408 -0.7555,-3.33333 -2,-3.33333 -1.9998,0 -2.7884,4.10047 -1.1111,5.77777 1.8128,1.81281 3.1111,0.79271 3.1111,-2.44444 z"
         id="path28" />
      <path
         style="fill:#ffffff"
         d="m 2251.7333,341.14034 c 2.1908,-2.19074 2.0855,-10.4 -0.1333,-10.4 -2.9726,0 -4.9333,3.0206 -4.9333,7.6 0,4.58246 2.1152,5.75142 5.0666,2.8 z"
         id="path27" />
    </g>
    <path
       style="fill:#000000"
       d="m 2023.3333,571.16689 c -20.0712,-4.49691 -31.9725,-15.39635 -38.0167,-34.81668 -4.1669,-13.38808 -6.6257,-41.73657 -9.2756,-106.9432 -0.7302,-17.96667 -2.6362,-50.06667 -4.2357,-71.33333 -3.2052,-42.61743 -2.7254,-54.19503 2.8617,-69.06242 4.0295,-10.72234 14.0836,-20.85283 24.6703,-24.85772 20.9282,-7.91699 48.9228,-3.17673 61.7629,10.45815 4.6456,4.93317 10.7496,18.36025 11.7402,25.82524 0.4644,3.4998 1.2632,6.62208 1.775,6.9384 0.5118,0.31632 3.2124,-2.417 6.0013,-6.07406 11.3744,-14.91502 28.4516,-27.73627 45.7279,-34.33158 7.5818,-2.89437 33.8979,-7.55395 51.1904,0.63898 20.0234,9.48676 29.7802,27.18711 29.6549,53.79834 -0.084,17.89879 -5.266,32.41279 -15.558,43.57826 -9.7281,10.55375 -13.368,11.75476 -35.6319,11.75711 -22.7893,0.002 -27.4004,1.49689 -39.2779,12.73011 -8.383,7.92834 -17.6056,25.25702 -21.6086,40.60119 -2.5563,9.79887 -3.0081,31.63756 -1.6825,81.33333 0.4844,18.16346 0.2044,22.44332 -1.8851,28.80356 -5.1078,15.54851 -18.3671,26.98494 -35.2069,30.36686 -7.2041,1.44679 -27.5568,1.81027 -33.0057,0.58946 z"
       id="path26" />
    <g
       id="g35">
      <path
         style="fill:#ffffff"
         d="m 2003.4942,308.07367 c 2.519,-5.24674 6.5633,-10.84172 10.249,-14.17863 6.5009,-5.88575 7.1715,-9.85775 2.1207,-12.56087 -2.775,-1.48511 -10.621,1.20265 -14.957,5.12369 -6.5872,5.95685 -10.8142,21.56067 -7.5121,27.73067 2.7218,5.08564 5.5418,3.37821 10.0994,-6.11486 z"
         id="path25" />
      <path
         style="fill:#ffffff"
         d="m 1997.9511,334.74308 c -1.0552,-4.21151 -1.3801,-4.50714 -3.8936,-3.54264 -2.4776,0.95076 -2.7516,7.64585 -0.4087,9.98874 2.3943,2.39427 5.3919,-2.09713 4.3023,-6.4461 z"
         id="path24" />
    </g>
    <path
       style="fill:#000000"
       d="m 891.96383,570.66283 c -21.44589,-3.15941 -35.38563,-13.49678 -42.46555,-31.49144 -8.44762,-21.47088 -14.73738,-104.2436 -13.05209,-171.76438 1.48217,-59.38216 7.47429,-83.53211 23.62992,-95.23519 16.70489,-12.10096 44.72371,-14.07592 64.86037,-4.57181 8.492,4.00806 18.04866,14.31189 21.18793,22.84446 1.27399,3.46273 2.75319,6.80188 3.28711,7.42034 0.53392,0.61846 3.51074,-1.63108 6.61516,-4.99898 12.57731,-13.64477 32.35612,-25.37936 49.65002,-29.45692 10.5858,-2.49594 28.8979,-2.52709 38.1487,-0.0649 18.3829,4.89279 32.0872,16.42506 41.0546,34.54775 2.7709,5.60005 5.3565,10.16909 5.7457,10.15344 0.3892,-0.0157 2.4217,-2.45068 4.5167,-5.41116 6.5264,-9.22254 18.3162,-21.1817 26.9686,-27.3559 17.284,-12.33359 35.7471,-18.26943 56.5557,-18.18251 43.2889,0.18083 73.0644,23.95437 85.8732,68.56339 4.7262,16.45998 7.1419,34.92193 8.7773,67.08131 1.6703,32.84334 3.3619,55.55333 6.0584,81.33334 2.3363,22.33699 2.5145,43.25844 0.4507,52.93437 -6.1904,29.02367 -27.035,44.26818 -60.493,44.24108 -24.9279,-0.0202 -43.0812,-9.5752 -52.1346,-27.44107 -6.7486,-13.31773 -7.4023,-18.63139 -8.5787,-69.73438 -1.3932,-60.51865 -4.6057,-86.59054 -11.758,-95.42316 -3.3033,-4.07951 -5.7671,-2.85149 -11.4495,5.70682 -5.8361,8.78972 -11.7702,24.8335 -15.5222,41.96642 -2.4814,11.33118 -2.9955,19.33271 -3.8386,59.74992 -0.5355,25.66667 -1.5913,48.50172 -2.3463,50.74456 -6.0845,18.0747 -18.2352,28.68517 -37.4068,32.66519 -10.9055,2.26396 -31.1375,0.95423 -40.4947,-2.62145 -9.385,-3.58628 -18.134,-11.16552 -22.8135,-19.76327 -6.6219,-12.16666 -7.711,-20.26526 -9.013,-67.02503 -1.5622,-56.10755 -4.5327,-84.66826 -10.4062,-100.0548 -6.6543,-17.43184 -22.04534,3.22958 -29.7393,39.92301 -3.81951,18.21565 -5.19078,42.22023 -4.27289,74.79846 0.58167,20.64483 0.33964,30.90532 -0.86489,36.66666 -4.59664,21.98598 -18.07506,34.62555 -41.36079,38.78666 -11.11547,1.98631 -14.62997,2.0513 -25.3695,0.46916 z"
       id="path23" />
    <path
       style="fill:#ffffff"
       d="m 1134.5036,302.89499 c 4.8563,-3.58161 11.9368,-7.83703 15.7343,-9.45649 7.4851,-3.19202 9.1804,-5.46912 7.0437,-9.46142 -3.2109,-5.99976 -16.1569,-1.73655 -28.2149,9.29144 -8.2171,7.51526 -10.1949,11.17254 -7.6803,14.20247 2.4036,2.89615 3.5079,2.51091 13.1172,-4.576 z"
       id="path22" />
    <path
       style="fill:#ffffff"
       d="m 875.51071,308.48731 c 2.96562,-5.09155 7.42165,-10.499 10.48929,-12.7289 6.58113,-4.78389 7.84021,-6.91294 6.05778,-10.24344 -2.22157,-4.15104 -6.2194,-4.59034 -12.797,-1.40618 -7.17559,3.47365 -12.14019,9.58945 -14.70651,18.11667 -2.46997,8.20709 -2.38382,12.42326 0.31479,15.40519 2.84841,3.14746 4.11825,2.05641 10.64165,-9.14334 z"
       id="path21" />
    <path
       style="fill:#ffffff"
       d="m 866.87053,339.49204 c 1.71606,-3.76635 0.78363,-7.12312 -2.30819,-8.30956 -2.61627,-1.00396 -4.51411,1.64339 -4.54192,6.33564 -0.036,6.08078 4.39688,7.35816 6.85011,1.97392 z"
       id="path20" />
    <path
       id="path19"
       style="fill:#000000"
       d="m 678.66602,250.29492 c -29.2698,0.0964 -47.59973,4.0705 -73.08985,15.84766 -50.99987,23.56339 -91.33149,80.12522 -104.5332,146.59765 -4.04005,20.342 -4.06508,52.00379 -0.0547,69.41211 13.09299,56.83407 50.72343,88.58789 104.98242,88.58789 31.71054,0 57.11023,-9.97079 82.40821,-32.35156 4.97475,-4.4011 9.23447,-7.773 9.46679,-7.49219 0.23232,0.2808 2.45004,4.36131 4.92774,9.06836 8.00459,15.20681 20.9191,25.57543 37.36523,29.99805 8.69887,2.33925 26.46313,2.65239 36.12891,0.63672 25.47558,-5.31261 43.2903,-24.07629 44.77148,-47.15625 0.88058,-13.72135 -1.35644,-21.3067 -10.47851,-35.5332 -4.32458,-6.74449 -9.12203,-15.61749 -10.66211,-19.7168 -6.45948,-17.1934 -9.22933,-44.77886 -9.23633,-91.98047 -0.009,-64.29247 -5.25219,-85.28735 -25.20703,-100.94922 -10.07695,-7.90905 -19.75692,-12.82451 -34.78906,-17.66601 -19.09914,-6.15138 -27.86487,-7.38224 -52,-7.30274 z m -15.33204,105.26953 c 19.22265,-0.3693 27.20093,13.09762 25.58204,43.17578 -0.87816,16.31584 -3.52858,25.69644 -11.70508,41.41602 -6.93881,13.34006 -19.87858,27.18615 -29.87696,31.96875 -8.94831,4.28031 -20.78658,4.91433 -28.07421,1.50586 -7.1027,-3.32197 -14.61435,-12.25842 -17.4336,-20.74414 -2.98232,-8.97644 -2.95007,-26.85085 0.0684,-38.06836 9.08515,-33.76354 34.98851,-58.74574 61.43945,-59.25391 z" />
    <g
       id="g32">
      <path
         style="fill:#ffffff"
         d="m 668.43304,280.33183 c 1.97008,-2.17691 1.98268,-2.68975 0.13104,-5.33333 -2.52458,-3.60435 -6.07269,-3.74778 -9.13037,-0.36908 -1.84518,2.03891 -2.0123,3.11746 -0.8264,5.33334 1.83784,3.43405 6.88055,3.62346 9.82573,0.36907 z"
         id="path18" />
      <path
         style="fill:#ffffff"
         d="m 576.69168,329.35956 c 19.05292,-19.15668 32.52856,-28.06722 56.32544,-37.24427 11.19375,-4.31676 14.47761,-7.33215 13.01241,-11.94858 -0.43168,-1.3601 -2.58866,-3.22007 -4.79329,-4.13325 -8.6922,-3.60043 -34.04465,6.92329 -52.56957,21.82144 -19.39647,15.59907 -34.57253,38.53514 -29.11111,43.99655 2.02802,2.02803 4.45307,0.26022 17.13612,-12.49189 z"
         id="path17" />
      <path
         style="fill:#ffffff"
         d="m 550.4777,366.01106 c 1.46919,-1.86777 3.07344,-5.22707 3.565,-7.46511 1.90061,-8.65342 -5.5286,-8.30968 -9.86575,0.45648 -4.37392,8.84048 0.55081,14.3185 6.30075,7.00863 z"
         id="path16" />
    </g>
    <path
       id="path14"
       style="fill:#000000"
       d="m 1484.3145,249.70508 c -26.4262,0.45656 -53.5635,6.95069 -77.6485,19.08008 -64.4138,32.43924 -107.783,109.76826 -105.0098,187.23242 1.3511,37.74078 13.141,66.12916 36.5391,87.98047 26.172,24.44171 65.9559,33.30484 104.7988,23.34765 18.3199,-4.69622 37.6542,-16.04989 53.9786,-31.69922 3.1013,-2.97303 5.8013,-5.14319 6,-4.82226 0.1988,0.32093 1.8599,3.56414 3.6933,7.20898 10.0684,20.0169 25.6502,30.99074 48.2149,33.95313 15.7843,2.07223 32.9367,-0.80146 45.5586,-7.63281 3.5416,-1.91682 9.6398,-6.94355 13.5527,-11.16993 9.4443,-10.20093 13.0544,-19.53575 13.0644,-33.77734 0.01,-13.07372 -2.4616,-19.89225 -12.5605,-34.66602 -14.2168,-20.79772 -16.9023,-36.95016 -18.5078,-111.33398 -0.829,-38.40542 -1.6771,-55.07234 -3.1348,-61.55078 -6.3139,-28.0613 -26.1575,-45.94035 -62.5527,-56.36328 -14.5308,-4.16136 -30.1307,-6.06105 -45.9863,-5.78711 z m -16.4922,105.38281 c 10.1031,-0.3064 17.7077,4.39782 22.4257,14.04102 3.4103,6.97038 3.7005,8.77476 3.5821,22.26562 -0.3185,36.28368 -18.4829,70.70242 -43.2403,81.93359 -6.4021,2.90427 -18.2053,3.52758 -23.8828,1.26172 -10.6332,-4.2437 -18.8902,-16.09848 -21.541,-30.93164 -5.3814,-30.11239 14.4015,-69.14796 41.8574,-82.59179 7.7761,-3.80756 14.737,-5.79468 20.7989,-5.97852 z" />
    <g
       id="g33">
      <path
         style="fill:#ffffff"
         d="m 1475.9469,280.80432 c 2.3419,-2.82186 0.4129,-7.2562 -3.5941,-8.26189 -4.595,-1.15329 -9.0452,3.74607 -6.9532,7.65506 1.636,3.05693 8.2005,3.43461 10.5473,0.60683 z"
         id="path13" />
      <path
         style="fill:#ffffff"
         d="m 1373.5856,337.6057 c 3.1612,-2.82406 9.3477,-8.59069 13.7477,-12.81473 15.0333,-14.43208 31.5015,-24.74008 52.3524,-32.76904 5.5697,-2.14471 10.6098,-4.66044 11.2001,-5.59053 2.0951,-3.30073 1.1123,-7.63086 -2.2288,-9.81999 -3.0954,-2.02822 -3.9833,-2.02958 -11.99,-0.0184 -11.4132,2.86692 -21.1296,7.25896 -32.8919,14.86798 -22.7736,14.73212 -45.268,42.66081 -39.7323,49.33092 2.3246,2.8009 3.1488,2.52571 9.5428,-3.18625 z"
         id="path12" />
      <path
         style="fill:#ffffff"
         d="m 1354.3855,366.12825 c 1.4185,-1.80333 3.3512,-5.14277 4.2949,-7.42099 1.4577,-3.51919 1.4085,-4.44943 -0.3268,-6.18473 -3.0475,-3.04748 -7.3801,-0.14806 -10.5765,7.07779 -2.0813,4.70515 -2.302,6.37098 -1.0446,7.88597 2.3172,2.79212 4.7245,2.36494 7.653,-1.35804 z"
         id="path11" />
    </g>
    <path
       style="fill:#000000"
       d="M 262,587.9973 C 197.25615,581.29431 145.68793,556.09618 105.83718,511.69039 52.125475,451.83932 34.539018,358.12766 60.637465,270.83801 76.326691,218.36335 99.799875,178.67336 137.22343,141.34145 156.08364,122.52742 171.37235,110.25136 188.97143,99.790405 222.0243,80.143665 255.75773,68.016924 294,62.033984 c 19.79487,-3.09687 56.60835,-2.12051 76,2.01566 58.10931,12.39451 94.77459,40.609846 105.23645,80.983476 2.68766,10.37201 2.68703,29.04485 -10e-4,39.41956 -5.42111,20.92075 -20.0563,37.55111 -39.23512,44.58393 -20.10261,7.37156 -38.67276,4.18678 -59.98764,-10.28788 -11.30355,-7.67609 -22.74342,-12.81205 -36.01049,-16.16702 -9.53341,-2.41079 -13.77015,-2.73766 -27.95253,-2.15658 -18.48986,0.75756 -28.90791,3.36469 -44.20179,11.06154 -35.38202,17.80648 -63.10649,60.56272 -69.30385,106.87929 -2.08279,15.5659 -0.80621,42.02302 2.67404,55.41943 9.80961,37.75975 36.08654,65.29826 71.44893,74.87924 12.64943,3.42721 35.10733,4.10888 49.94786,1.51609 25.10843,-4.3867 43.53051,-12.52697 69.68233,-30.79093 11.72074,-8.18555 20.23037,-11.26655 33.91287,-12.27848 44.68696,-3.30497 72.99155,48.97484 51.34528,94.83695 -18.45627,39.10343 -78.41038,73.16546 -148.22168,84.20993 -15.85014,2.50756 -51.47756,3.48067 -67.33333,1.83911 z"
       id="path9" />
    <g
       id="g31">
      <path
         style="fill:#ffffff"
         d="m 277.39043,105.37644 c 4.44339,-2.37803 5.82822,-6.482855 3.17586,-9.413685 -2.59618,-2.86874 -8.53565,-3.38639 -10.96629,-0.95575 -2.54573,2.54573 -1.86053,7.399635 1.36334,9.657725 3.51332,2.46083 3.21962,2.4283 6.42709,0.71171 z"
         id="path8" />
      <path
         style="fill:#ffffff"
         d="m 129.20379,213.13078 c 27.29638,-38.88204 53.13332,-62.43548 92.12954,-83.98708 4.76667,-2.63434 12.56667,-6.41028 17.33334,-8.39099 11.24638,-4.67323 14.91211,-8.05023 14.39608,-13.26215 -0.62349,-6.29717 -5.64721,-8.436095 -14.62155,-6.22536 -16.54396,4.07544 -47.36873,21.30594 -67.10787,37.51212 -26.30144,21.59394 -51.57969,55.04513 -59.3572,78.54853 -3.08558,9.32449 -2.15786,15.37368 2.2252,14.50943 1.19459,-0.23555 7.9457,-8.65258 15.00246,-18.7045 z"
         id="path7" />
      <path
         style="fill:#ffffff"
         d="m 102.59025,264.15009 c 3.87225,-3.87225 6.25634,-12.78311 4.11153,-15.36744 -3.85978,-4.65075 -9.782825,-0.30375 -11.537005,8.46717 -0.79063,3.95315 1.27997,9.49052 3.5488,9.49052 0.70753,0 2.452035,-1.16561 3.876675,-2.59025 z"
         id="path6" />
    </g>
    <path
       id="path5"
       style="fill:#000000"
       d="m 1777.2363,254.96094 c -2.984,-0.0494 -5.9813,0.0205 -8.9863,0.21289 -74.7993,4.78958 -130.2708,69.03009 -137.5625,159.30664 -2.6501,32.81047 2.0715,60.33875 14.6816,85.59375 15.2718,30.58602 39.6918,49.7921 74.9336,58.9375 14.9982,3.89211 43.7875,4.18772 58.3633,0.59961 12.4198,-3.0574 34.8246,-13.71968 42.2129,-20.08985 3.0499,-2.62961 5.9865,-4.78125 6.5254,-4.78125 1.4535,0 -0.4535,19.66761 -2.7891,28.76368 -4.3975,17.12684 -13.6487,30.31896 -27.5664,39.31445 -11.4194,7.3807 -21.8247,9.74685 -39.2968,8.93359 -17.9739,-0.83661 -30.5313,-5.0587 -48.1934,-16.20312 -18.2908,-11.54112 -27.3245,-13.57898 -41.5137,-9.36524 -9.7263,2.88842 -19.8435,12.99146 -23.9668,23.93164 -4.2119,11.17488 -3.499,27.2225 1.7149,38.57422 14.3082,31.15205 51.2548,52.39949 104.207,59.92969 8.8334,1.2561 44.4389,-0.37962 54.666,-2.51172 25.3151,-5.2778 50.058,-16.23635 69.2149,-30.6543 33.7709,-25.41673 57.0406,-70.81224 65.2988,-127.38671 5.2052,-35.6591 6.4783,-56.15159 6.3633,-102.49219 -0.1206,-48.54192 -1.3085,-73.46669 -5.5782,-117.05274 -3.5821,-36.56636 -7.8132,-49.06966 -20.1836,-59.6582 -9.6027,-8.21953 -17.9939,-10.67773 -36.4472,-10.67773 -18.9076,0 -27.1537,2.53888 -37.334,11.5 -5.7475,5.05914 -6.5172,5.369 -9.1387,3.68945 -18.4527,-11.82219 -38.7368,-18.06823 -59.625,-18.41406 z m 12.0078,96 c 4.2024,0.10379 8.3583,0.87619 12.3379,2.3789 9.8105,3.70447 20.8824,15.28231 25.1992,26.35352 4.4829,11.49704 5.1753,34.32906 1.4161,46.67187 -6.3755,20.93306 -21.0657,36.17561 -39.4903,40.97461 -9.4852,2.4706 -11.2331,2.46695 -20.5976,-0.0508 -13.5272,-3.63692 -21.6085,-10.90405 -28.5,-25.63086 -7.5352,-16.10223 -6.3019,-39.97454 3.0801,-59.63281 9.272,-19.42778 28.3443,-31.51422 46.5546,-31.06445 z" />
    <g
       id="g34">
      <path
         style="fill:#ffffff"
         d="m 1775.1943,283.86753 c 1.4483,-2.06778 1.6432,-3.5623 0.6954,-5.33333 -2.4275,-4.53584 -10.5564,-2.32366 -10.5564,2.87281 0,5.42707 6.6253,7.08021 9.861,2.46052 z"
         id="path4" />
      <path
         style="fill:#ffffff"
         d="m 1688.1348,339.07368 c 16.7436,-21.3903 29.9008,-32.46165 49.4825,-41.63794 13.7453,-6.44128 16.7628,-9.33734 14.6228,-14.03415 -1.3119,-2.87945 -2.3736,-3.32365 -7.8782,-3.29627 -17.2679,0.0859 -44.417,18.55446 -59.2305,40.29251 -8.3176,12.20554 -12.4888,23.87397 -9.5758,26.78696 2.4612,2.46121 6.1811,0.0626 12.5792,-8.11111 z"
         id="path3" />
      <path
         style="fill:#ffffff"
         d="m 1669.6045,373.74034 c 2.7207,-3.14601 5.1255,-10.61698 4.1966,-13.03757 -1.8855,-4.91351 -8.8794,-0.49184 -11.0183,6.96595 -2.0012,6.97789 2.5415,11.02109 6.8217,6.07162 z"
         id="path2" />
    </g>
  </g>
</svg>
