<?xml version="1.0" encoding="UTF-8" standalone="no"?>
<!-- Created with Inkscape (http://www.inkscape.org/) -->

<svg
   version="1.1"
   id="svg1"
   width="1348.6278"
   height="989.64148"
   viewBox="0 0 1348.6278 989.64148"
   xmlns="http://www.w3.org/2000/svg"
   xmlns:svg="http://www.w3.org/2000/svg">
  <defs
     id="defs1" />
  <g
     id="g1"
     transform="translate(-74.77475,-33.470432)">
    <path
       id="path120"
       style="fill:#000000"
       d="m 207.09961,93.529297 c -8.07797,0.05846 -14.22219,2.523264 -19.88086,7.875003 l -5.14063,4.86132 -5.48046,-3.45898 c -8.40146,-5.303989 -16.42883,-7.394759 -28.33594,-7.380859 -11.68593,0.01367 -18.24829,1.504645 -28.15234,6.396489 -16.52706,8.16309 -30.149061,25.86509 -35.660161,46.34179 -2.76104,10.25873 -3.003208,31.24603 -0.486328,42.24805 3.84328,16.80007 14.703966,33.19507 27.769529,41.91992 11.98179,8.0011 29.76933,11.15172 45.08594,7.98633 6.96099,-1.43858 18.99886,-7.44954 24.34375,-12.1543 4.90269,-4.31553 5.95739,-4.54814 7.50195,-1.66211 3.34573,6.25156 11.51311,12.70522 18.95313,14.97657 1.375,0.41977 5.875,0.79097 10,0.82617 12.06109,0.1029 19.94306,-4.50548 24.61719,-14.39258 3.81646,-8.0729 3.33142,-15.41147 -1.83594,-27.84766 l -4.2168,-10.15234 -0.62695,-38 c -0.40357,-24.50524 -1.0394,-39.28178 -1.79102,-41.61133 -3.2159,-9.96716 -11.31324,-15.808479 -23.08008,-16.650389 -1.23713,-0.08852 -2.42998,-0.129445 -3.58398,-0.121094 z m -54.62305,45.923823 c 10.63382,0.13302 20.37424,9.59102 20.47852,24.45899 0.0778,11.09495 -5.36763,20.39698 -14.07031,24.0332 -4.92041,2.05587 -12.98871,1.79174 -17.46485,-0.57226 -13.05426,-6.89441 -15.70824,-27.53138 -5.13086,-39.88867 4.80314,-5.61139 10.61741,-8.10093 16.1875,-8.03126 z" />
    <path
       style="fill:#ffffff"
       d="m 145.43633,107.65274 c 0.26073,-1.82752 -0.15919,-2.23978 -2.28138,-2.23978 -2.94705,0 -4.5665,2.72783 -2.43389,4.09967 2.21431,1.4244 4.36789,0.57494 4.71527,-1.85989 z"
       id="path119" />
    <path
       style="fill:#ffffff"
       d="m 109.49548,131.45056 c 4.17351,-6.44083 9.98877,-11.39186 18.3713,-15.64108 6.70163,-3.39714 7.85449,-4.89203 5.55,-7.19652 -5.88237,-5.88237 -31.8,14.48968 -31.8,24.99578 0,2.27049 0.44378,2.80422 2.33159,2.80422 1.69689,0 3.20689,-1.35084 5.54711,-4.9624 z"
       id="path118" />
    <path
       style="fill:#ffffff"
       d="m 100.64439,147.36138 c 1.43932,-2.68941 0.86264,-6.44842 -0.989265,-6.44842 -1.94353,0 -4.53899,4.75294 -3.73689,6.84318 0.87778,2.28746 3.40358,2.07648 4.726155,-0.39476 z"
       id="path117" />
    <path
       style="fill:#000000"
       d="m 1154.2833,241.73664 c -7.1372,-2.4635 -14.091,-9.17466 -16.6986,-16.11598 -4.3118,-11.47769 -6.9621,-35.19137 -6.9735,-62.39509 -0.01,-17.82424 -0.7302,-20.21319 -6.9215,-22.87658 -8.7841,-3.77882 -13.2729,-10.85926 -13.2729,-20.93603 0,-9.60831 4.3259,-16.21123 13.682,-20.8839 4.8818,-2.43808 4.9002,-2.48569 6.0493,-15.6161 2.2116,-25.26998 11.8381,-39.72248 31.0494,-46.61489 8.4292,-3.02411 30.7376,-3.79479 42.5173,-1.46884 10.7395,2.12058 19.8271,6.48573 23.4842,11.28043 6.2325,8.1712 6.3066,19.94353 0.1696,26.93322 -4.1243,4.69727 -7.6328,6.33685 -17.0951,7.98874 -4.411,0.77006 -8.8382,2.14063 -9.8383,3.04571 -2.2179,2.00713 -2.3699,6.64127 -0.2863,8.72492 1.4616,1.46152 2.9412,1.83762 11.8845,3.02086 6.9206,0.91562 14.4698,5.34129 17.6412,10.34198 8.3904,13.23029 2.28,29.59222 -12.7894,34.24669 -3.5635,1.10065 -7.9568,2.00118 -9.763,2.00118 -1.8061,0 -4.3462,0.8595 -5.6446,1.91 l -2.3608,1.91 -0.5692,33.34 c -0.4685,27.4459 -0.8805,34.48128 -2.3306,39.79566 -3.0781,11.28071 -6.9493,16.64822 -14.9805,20.77066 -6.6248,3.40056 -19.5157,4.16453 -26.9532,1.59736 z"
       id="path115" />
    <path
       style="fill:#ffffff"
       d="m 1152.4057,65.91296 c 4.4527,-7.94074 5.6975,-9.20657 12.3667,-12.57607 6.0388,-3.05103 7.1027,-4.39616 5.6741,-7.17393 -1.2297,-2.39097 -6.1657,-2.24986 -11.4919,0.32853 -9.0371,4.37479 -18.1704,18.62877 -15.3332,23.93006 1.9784,3.69664 5.0742,2.10767 8.7843,-4.50859 z"
       id="path114" />
    <path
       style="fill:#ffffff"
       d="m 1144.372,88.16296 c 1.911,-2.38869 2.253,-5.35655 0.8398,-7.28918 -1.388,-1.89822 -1.4533,-1.89901 -3.5047,-0.0426 -2.3185,2.09825 -2.7335,5.53857 -0.8903,7.38174 1.5233,1.52333 2.3052,1.51234 3.5552,-0.05 z"
       id="path113" />
    <path
       id="path112"
       style="fill:#000000"
       d="m 840.35742,35.085938 c -9.70461,-0.432472 -20.69076,3.343107 -26.89453,9.546874 -8.38033,8.380331 -12.2571,19.967364 -13.71094,40.970704 -1.15327,16.661034 -1.4437,17.023094 -10.63086,13.347656 -13.47202,-5.38966 -28.44659,-5.735826 -43.42578,-1.003906 -22.41854,7.082014 -40.13504,27.898404 -45.78125,53.789064 -2.33883,10.7247 -2.08102,31.10583 0.51758,40.8125 6.0727,22.68368 21.44249,39.52475 42.4707,46.53906 7.24908,2.41805 9.68394,2.73451 20.71485,2.69531 10.24792,-0.0364 13.5617,-0.43338 18.39843,-2.20508 6.24675,-2.28817 16.18907,-7.70858 20.96876,-11.43164 2.80652,-2.18609 2.89287,-2.19141 4,-0.29882 3.97906,6.80207 11.59158,12.96831 18.13281,14.68945 6.01119,1.58167 15.8472,0.3564 21.40039,-2.66602 15.20081,-8.27332 18.65144,-26.08568 21.14844,-109.1582 1.12356,-37.379719 0.17697,-65.262161 -2.57422,-75.800781 -2.9479,-11.29216 -9.39233,-17.332876 -20.67188,-19.378906 -1.3164,-0.238786 -2.67613,-0.385484 -4.0625,-0.447265 z M 777.84961,139.42969 c 10.88063,0.49834 20.7362,11.09874 20.75781,24.58398 0.0157,9.82191 -3.75951,17.64742 -10.86133,22.51367 -4.75436,3.25774 -15.10589,3.73591 -20.25781,0.93555 -7.81937,-4.25026 -12.13408,-12.08435 -12.14648,-22.05078 -0.0139,-11.24171 5.7809,-20.80647 14.91992,-24.625 2.51199,-1.04958 5.07698,-1.47242 7.58789,-1.35742 z" />
    <path
       style="fill:#ffffff"
       d="m 818.6433,67.16296 c 0.60796,-0.6875 2.43918,-3.62015 4.06937,-6.51701 2.20446,-3.91731 4.2339,-5.96734 7.91964,-8 3.67969,-2.0293 4.95936,-3.32039 4.97006,-5.01437 0.0317,-5.02033 -8.13411,-3.96645 -14.46209,1.86649 -7.34808,6.77322 -10.90675,18.91489 -5.54387,18.91489 1.06783,0 2.43894,-0.5625 3.04689,-1.25 z"
       id="path111" />
    <path
       style="fill:#ffffff"
       d="m 814.41678,83.21296 c 1.70969,-1.70968 1.49798,-6.74842 -0.31273,-7.44326 -2.05928,-0.79022 -4.48727,1.40967 -4.48727,4.06571 0,2.04399 1.66043,4.57755 3,4.57755 0.33,0 1.14,-0.54 1.8,-1.2 z"
       id="path110" />
    <path
       style="fill:#ffffff"
       d="m 762.03499,109.80597 c 3.2294,-1.23923 0.91271,-5.55381 -2.50254,-4.66071 -2.62892,0.68748 -2.48179,5.2677 0.16921,5.2677 0.41335,0 1.46335,-0.27314 2.33333,-0.60699 z"
       id="path109" />
    <path
       style="fill:#ffffff"
       d="m 724.32415,133.74388 c 6.89571,-9.05988 11.74736,-13.40008 19.15982,-17.14005 6.34661,-3.20219 7.63281,-4.25891 7.63281,-6.27101 0,-6.22438 -14.42422,-1.12607 -24.05135,8.50106 -4.99992,4.99991 -9.44865,11.98671 -9.44865,14.83924 0,1.45088 1.93246,3.73984 3.15737,3.73984 0.41655,0 2.01405,-1.65109 3.55,-3.66908 z"
       id="path108" />
    <path
       style="fill:#ffffff"
       d="m 717.04535,148.84153 c 0.86429,-0.86428 1.57143,-2.88928 1.57143,-4.5 0,-2.24442 -0.459,-2.92857 -1.96482,-2.92857 -3.29812,0 -5.69155,7.16497 -2.78518,8.33772 0.6875,0.27741 1.33036,0.53991 1.42857,0.58333 0.0982,0.0434 0.88572,-0.62819 1.75,-1.49248 z"
       id="path107" />
    <path
       id="path105"
       style="fill:#000000"
       d="m 339.4043,35.5 c -4.08287,0.03639 -6.43749,0.533521 -9.83594,1.814453 -19.32779,7.28493 -26.92196,24.346046 -29.86914,67.097657 -3.549,51.4815 -1.35052,105.51707 4.98242,122.44336 2.61281,6.98338 8.05294,12.73052 14.06055,14.85351 2.40625,0.85033 7.75,1.57724 11.875,1.61524 9.66475,0.0891 15.84876,-2.6347 22.05078,-9.71094 l 4.44922,-5.07422 6,3.95508 c 30.2008,19.91049 69.77517,8.28186 85.83593,-25.22266 6.99995,-14.60265 8.15354,-20.39487 8.14454,-40.85937 -0.009,-20.11372 -1.0265,-25.23827 -7.74805,-39 -5.10239,-10.44664 -16.73951,-22.68605 -26.41797,-27.78711 -13.28616,-7.00251 -29.33973,-8.914354 -43.80469,-5.214844 -5.94098,1.51945 -8.14078,1.723836 -9.18945,0.853516 -1.12421,-0.93301 -1.25888,-4.485847 -0.72461,-19.248047 0.71234,-19.68255 0.0943,-24.273565 -4.14844,-30.796875 -1.32169,-2.0321 -4.52738,-4.940591 -7.125,-6.462891 -4.00472,-2.34692 -6.10016,-2.82623 -13.77343,-3.15039 C 342.31821,35.527406 340.76525,35.48787 339.4043,35.5 Z m 42.15625,103.96875 c 0.97469,-0.0154 2.10224,0.0331 3.48437,0.12109 8.04917,0.51253 13.13194,3.80035 17.18555,11.11524 2.51258,4.53402 2.88525,6.24295 2.87305,13.20703 -0.0158,9.04099 -1.40455,12.59734 -7.33008,18.78125 -2.33617,2.43804 -5.3786,4.30216 -8.57032,5.25 -5.41082,1.60685 -6.83485,1.67857 -10.59374,0.53516 -8.44616,-2.5692 -14.2911,-9.22078 -16.23047,-18.4668 -2.22733,-10.61884 2.91123,-22.97833 11.69336,-28.125 3.00539,-1.76129 4.5642,-2.37185 7.48828,-2.41797 z" />
    <path
       style="fill:#ffffff"
       d="m 324.44206,63.06855 c 3.09656,-5.4868 6.51207,-8.84042 12.11905,-11.89945 2.37612,-1.29636 3.11417,-2.32284 2.87602,-4 -0.27665,-1.94836 -0.89297,-2.24489 -4.51795,-2.1737 -7.54528,0.14818 -15.03907,6.95711 -18.17606,16.51494 -1.46345,4.45884 -0.619,6.90262 2.38519,6.90262 1.7339,0 3.03752,-1.31114 5.31375,-5.34441 z"
       id="path104" />
    <path
       style="fill:#ffffff"
       d="m 317.17652,81.96213 c 2.21591,-3.3819 1.52213,-6.04917 -1.57344,-6.04917 -1.98728,0 -2.55144,0.5689 -2.81087,2.83448 -0.65648,5.73293 1.63392,7.41231 4.38431,3.21469 z"
       id="path103" />
    <path
       id="path101"
       style="fill:#000000"
       d="m 997.29297,89.595703 c -2.81612,-0.07082 -5.6823,-0.0094 -8.5918,0.1875 -22.2326,1.5042 -38.08558,8.467915 -51.39648,22.578127 -14.3308,15.19141 -20.92372,32.59625 -21.04102,55.55078 -0.1191,23.31274 6.47125,40.79528 20.71485,54.95703 11.6627,11.59561 25.51551,18.23327 42.69921,20.45703 21.03837,2.72258 44.16407,-0.29685 60.59177,-7.91211 14.5618,-6.75027 21.6803,-15.44553 21.6973,-26.50195 0.015,-9.63907 -5.0443,-16.48314 -14.1387,-19.12695 -6.2627,-1.82062 -11.8463,-1.27977 -23.7109,2.29296 -16.3342,4.91862 -30.4419,3.92773 -37.4629,-2.63085 -6.4383,-6.01428 -2.12617,-10.51717 9.17773,-9.58204 6.98517,0.57785 26.89497,-0.77533 37.28517,-2.5332 14.8679,-2.51542 22.1971,-6.89587 26.3281,-15.73828 2.2943,-4.91075 2.6399,-6.90141 2.5469,-14.68164 -0.1768,-14.81777 -4.8718,-25.92888 -15.7637,-37.30664 -11.9937,-12.528811 -29.2227,-19.513996 -48.93553,-20.009767 z m 6.06253,45.955077 c 4.4512,0.17204 8.6449,1.3134 11.3086,3.55469 4.0408,3.40008 3.6047,6.24533 -1.3262,8.6543 -4.9367,2.41185 -22.08316,3.38903 -25.62306,1.46093 -3.8465,-2.09511 -4.70811,-4.2262 -2.85351,-7.05664 2.94381,-4.4928 11.07541,-6.9 18.49417,-6.61328 z" />
    <path
       style="fill:#ffffff"
       d="m 980.41341,103.59549 c -0.4634,-2.40617 -5.1616,-2.24128 -5.6313,0.19764 -0.1992,1.0341 0.2204,2.2402 0.9324,2.68023 1.8287,1.1302 5.0865,-0.86507 4.6989,-2.87787 z"
       id="path100" />
    <path
       style="fill:#ffffff"
       d="m 945.08281,128.91532 c 5.6909,-7.69519 10.8277,-12.13701 18.2791,-15.80592 4.789,-2.35804 6.2399,-5.13995 3.9007,-7.47914 -4.8646,-4.86465 -24.8256,10.0316 -30.5373,22.789 -1.4084,3.14586 -1.6927,4.90224 -1.0021,6.19254 1.7011,3.17865 3.6924,1.96673 9.3596,-5.69648 z"
       id="path99" />
    <path
       style="fill:#ffffff"
       d="m 935.27691,146.46743 c 1.3521,-2.7119 0.07,-6.46216 -1.9778,-5.78506 -1.9012,0.62864 -4.0753,5.26405 -3.3525,7.14767 0.904,2.35577 3.8523,1.60208 5.3303,-1.36261 z"
       id="path98" />
    <path
       style="fill:#000000"
       d="m 569.87579,243.37416 c -17.07421,-2.13558 -31.90575,-9.3733 -43.77723,-21.36308 -8.37815,-8.46162 -13.34988,-16.84092 -16.96829,-28.59812 -2.23144,-7.25057 -3.07925,-26.42013 -1.59217,-36 4.53747,-29.23069 22.80963,-52.88468 47.89742,-62.00499 30.34658,-11.03208 70.10436,-0.50221 81.93884,21.70155 6.09064,11.42721 5.28141,23.10924 -2.13501,30.82111 -7.59394,7.89644 -17.32736,8.37159 -31.07669,1.51704 -7.60475,-3.79125 -17.00792,-6.44807 -19.78629,-5.59053 -0.69277,0.21383 -2.46241,0.65123 -3.93252,0.97201 -1.47011,0.32077 -4.07734,1.76496 -5.79385,3.20931 -12.30492,10.35391 -9.48033,33.71372 4.98116,41.19503 6.76602,3.50024 17.32438,2.68655 29.98562,-2.31086 12.04042,-4.75237 19.36712,-5.13476 26.6429,-1.39052 6.93854,3.5707 10.69143,9.90366 10.77686,18.18586 0.0352,3.40724 -0.576,7.76999 -1.3581,9.69499 -5.2924,13.02621 -19.74217,23.29494 -39.42787,28.01941 -9.48192,2.27562 -26.45963,3.18193 -36.37478,1.94179 z"
       id="path96" />
    <path
       style="fill:#ffffff"
       d="m 576.11678,103.91296 c 0,-3.07766 -4.88945,-2.78033 -5.32926,0.32407 -0.28631,2.02092 0.0398,2.2818 2.5,2 2.05457,-0.23534 2.82926,-0.8717 2.82926,-2.32407 z"
       id="path95" />
    <path
       style="fill:#ffffff"
       d="m 535.94547,131.13447 c 5.12179,-7.97433 11.3663,-13.4611 19.88903,-17.47558 7.75914,-3.65481 9.19373,-5.01015 8.15851,-7.70786 -2.36856,-6.17238 -21.73297,3.42953 -30.50324,15.12513 -6.45945,8.614 -8.22611,13.58368 -5.71979,16.09 1.78186,1.78186 4.39545,-0.14639 8.17549,-6.03169 z"
       id="path94" />
    <path
       style="fill:#ffffff"
       d="m 526.60934,148.43092 c 1.38349,-3.34003 0.78777,-6.01796 -1.33873,-6.01796 -2.52208,0 -4.17065,3.3899 -3.76898,7.75 0.22993,2.4959 3.86736,1.26244 5.10771,-1.73204 z"
       id="path93" />
    <path
       id="path92"
       style="fill:#000000"
       d="m 1395.8125,91.033203 c -9.5132,-0.03205 -15.3416,2.341009 -21.3437,8.693359 l -4.2071,4.453128 -6.0722,-3.29297 c -8.2181,-4.455781 -15.2044,-5.812379 -27.1602,-5.273439 -16.5408,0.74563 -29.2625,6.500829 -41.5781,18.808599 -14.6487,14.63938 -22.0019,33.55231 -21.9629,56.49023 0.061,35.72084 20.538,59.9897 53.1328,62.96875 10.0973,0.92286 19.8866,-0.78117 28.916,-5.03516 8.5253,-4.01638 9.4822,-3.61865 8.5547,3.56641 -2.2811,17.67111 -12.5366,26.8383 -28.8555,25.79101 -6.3562,-0.40791 -8.8595,-1.19356 -17.7597,-5.57226 -12.6931,-6.24476 -16.116,-6.95798 -22.7871,-4.74219 -9.9553,3.30659 -15.6114,14.07256 -13.1563,25.04297 3.2638,14.58414 18.7558,26.00531 42.084,31.02539 8.6003,1.85073 33.1376,1.23699 41.5,-1.03711 3.3,-0.89741 10.2338,-3.67365 15.4101,-6.16992 7.6383,-3.68354 10.8624,-5.9874 17.1055,-12.23047 13.222,-13.22207 20.067,-30.52995 23.4473,-59.28125 2.1076,-17.92671 3.0434,-66.07843 1.6894,-86.9375 -1.8761,-28.90445 -4.9865,-38.418181 -14.4824,-44.289061 -4.1931,-2.59238 -5.7202,-2.955716 -12.4746,-2.978516 z m -50.2598,48.654297 c 2.9696,0.005 8.8402,2.1192 11.9219,4.45117 6.9068,5.22629 10.0715,18.10552 6.9824,28.41602 -1.4633,4.88424 -6.7362,11.10604 -11.209,13.22851 -6.5293,3.09833 -15.4634,1.74291 -21.0214,-3.18945 -6.4899,-5.75928 -8.5876,-20.38983 -4.2578,-29.6875 2.6235,-5.63401 8.3157,-11.16492 12.416,-12.0625 1.5025,-0.32889 3.3434,-0.78904 4.0898,-1.02344 0.2892,-0.0908 0.6539,-0.13355 1.0781,-0.13281 z" />
    <path
       style="fill:#ffffff"
       d="m 1337.393,109.23675 c 0.8589,-0.85892 0.8798,-1.5333 0.078,-2.5 -1.437,-1.73145 -3.3134,-1.67988 -4.8174,0.13241 -2.3599,2.84339 2.0575,5.0499 4.7398,2.36759 z"
       id="path91" />
    <path
       style="fill:#ffffff"
       d="m 1300.5379,133.02768 c 4.1696,-6.06042 11.7256,-12.61479 19.0317,-16.50887 6.7694,-3.60808 8.1315,-5.45009 5.7737,-7.80796 -1.3961,-1.39604 -1.9928,-1.39514 -6.1144,0.009 -10.1063,3.44356 -20.5219,12.71534 -25.7116,22.88785 -1.5138,2.96748 -1.714,4.28497 -0.8861,5.83199 1.4471,2.70398 3.985,1.28778 7.9067,-4.41221 z"
       id="path90" />
    <path
       style="fill:#ffffff"
       d="m 1291.5816,149.4787 c 1.736,-3.24368 1.2771,-6.06574 -0.9862,-6.06574 -2.2905,0 -4.5671,4.02395 -3.6414,6.43623 0.8301,2.1632 3.3809,1.95898 4.6276,-0.37049 z"
       id="path89" />
    <path
       style="fill:#1a1a1a"
       d="m 507.61678,352.39121 c -14.23832,-2.4886 -20.87477,-9.71844 -21.79026,-23.73862 -0.43316,-6.6337 -0.20102,-7.81504 2.68955,-13.68663 5.60881,-11.39311 15.21345,-16.14771 31.00243,-15.34718 10.01488,0.50777 14.83717,2.549 20.2958,8.59106 4.46018,4.93687 6.23525,10.01922 6.18306,17.70312 -0.0443,6.52628 -2.84986,14.22809 -6.67943,18.33653 -3.19867,3.4316 -10.4162,6.82457 -17.17502,8.07401 -6.5223,1.20571 -7.97634,1.21249 -14.52613,0.0677 z"
       id="path87" />
    <path
       style="fill:#ffffff"
       d="m 503.61678,324.94085 c 1.46949,-2.92259 3.94271,-5.89399 6,-7.20857 7.23068,-4.62032 7.58753,-5.01035 6.39282,-6.98725 -3.40531,-5.63481 -16.46988,-0.17856 -20.04178,8.37019 -4.38469,10.49404 2.61944,15.82855 7.64896,5.82563 z"
       id="path86" />
    <path
       style="fill:#ffffff"
       d="m 499.61678,338.91296 c 0.96802,-1.16639 0.97899,-1.82039 0.0493,-2.94056 -1.49308,-1.79909 -4.0493,-0.92738 -4.0493,1.38088 0,3.20017 1.99343,3.97744 4,1.55968 z"
       id="path85" />
    <path
       style="fill:#1a1a1a"
       d="m 328.94318,354.42889 c -14.17264,-3.00715 -22.02027,-13.34732 -21.1363,-27.8495 0.9974,-16.36296 12.63275,-26.28262 30.93435,-26.37294 18.92108,-0.0934 30.20888,9.93942 30.20888,26.85017 0,6.12684 -0.47663,8.25119 -2.91666,12.99964 -3.18229,6.19292 -9.61968,11.47896 -16.23505,13.33137 -5.43266,1.52123 -16.08626,2.05314 -20.85522,1.04126 z"
       id="path84" />
    <path
       style="fill:#ffffff"
       d="m 324.53748,327.16296 c 2.03732,-4.6813 6.34379,-9.15205 9.83036,-10.20538 1.23809,-0.37404 2.73181,-1.57836 3.3194,-2.67627 2.77013,-5.17605 -5.89098,-6.67038 -12.77815,-2.20465 -5.02777,3.26006 -8.29231,8.79358 -8.29231,14.05579 0,4.58902 0.48481,5.28051 3.7022,5.28051 1.83011,0 2.78955,-0.9666 4.2185,-4.25 z"
       id="path83" />
    <path
       style="fill:#ffffff"
       d="m 321.11678,338.41296 c 0,-1.28333 -0.56226,-2.52075 -1.24947,-2.74982 -1.53306,-0.51102 -2.68467,2.17608 -1.85699,4.33298 0.87971,2.2925 3.10646,1.15767 3.10646,-1.58316 z"
       id="path82" />
    <path
       style="fill:#000000"
       d="m 987.61681,502.93463 c -2.475,-0.80054 -6.188,-2.85354 -8.251,-4.56222 -10.6228,-8.79813 -13.8149,-24.03036 -13.8118,-65.90801 0,-54.19788 6.6466,-76.29207 24.7964,-82.47634 5.447,-1.856 14.95239,-2.04908 20.40799,-0.41454 5.0186,1.50362 11.3878,6.99657 13.9609,12.04034 1.8151,3.55796 2.2141,3.83624 3.7155,2.59141 0.9251,-0.76702 3.3413,-2.79554 5.3693,-4.50782 10.2134,-8.62343 26.874,-13.44939 38.9016,-11.26837 11.7188,2.12503 19.4064,7.3101 26.0352,17.56003 2.2849,3.53312 4.377,6.42385 4.649,6.42385 0.272,0 3.6968,-3.0375 7.6107,-6.75 12.6462,-11.99545 26.7645,-16.82926 42.1621,-14.43544 30.6295,4.76186 42.6213,33.34781 42.8667,102.18544 0.1038,29.11184 -0.8246,33.90524 -8.1442,42.04642 -10.1014,11.23513 -30.591,12.14977 -41.7501,1.86369 -7.5502,-6.9595 -10.3924,-17.3423 -10.5145,-38.41011 -0.1203,-20.75529 -2.3397,-34.45383 -6.3344,-39.09799 l -2.2621,-2.62987 -3.1529,3.59088 c -4.402,5.01362 -8.1226,17.425 -9.3214,31.09477 -2.6496,30.21188 -2.9082,31.96409 -5.5006,37.26646 -5.1737,10.58179 -15.4278,15.97411 -28.5862,15.03263 -13.1589,-0.94151 -22.7549,-8.22976 -26.4003,-20.05101 -1.0844,-3.51668 -1.9245,-12.34437 -2.589,-27.20587 -0.5411,-12.1 -1.6282,-25.15 -2.4159,-29 -2.4175,-11.81644 -7.0732,-15.50621 -11.7437,-9.30717 -5.3128,7.05152 -7.3949,17.49009 -8.6382,43.30717 -1.0131,21.037 -1.6484,24.16323 -6.336,31.17731 -4.7657,7.13086 -11.8046,10.61756 -22.213,11.00315 -5.06289,0.18756 -9.66589,-0.23881 -12.51009,-1.15879 z"
       id="path81" />
    <path
       style="fill:#ffffff"
       d="m 1125.5894,373.43463 c 2.0683,-1.63809 5.8772,-3.88565 8.4642,-4.99458 3.8601,-1.65463 4.6463,-2.42077 4.3835,-4.27167 -0.6545,-4.60892 -7.7151,-3.10009 -16.0159,3.42255 -3.759,2.95375 -5.4352,5.99236 -4.3099,7.81308 1.0887,1.76162 3.6036,1.09932 7.4781,-1.96938 z"
       id="path80" />
    <path
       style="fill:#ffffff"
       d="m 987.64771,376.34697 c 2.1934,-4.68297 8.7949,-11.93401 10.865,-11.93401 1.25,0 2.15069,-2.71498 1.4803,-4.46193 -1.5507,-4.04095 -8.9289,-2.08952 -14.019,3.70784 -6.393,7.2812 -8.168,17.75409 -3.0091,17.75409 1.7971,0 2.8368,-1.12483 4.6828,-5.06599 z"
       id="path79" />
    <path
       style="fill:#ffffff"
       d="m 981.90001,394.06475 c 0.7299,-2.19097 0.5876,-3.20956 -0.617,-4.4141 -2.1021,-2.10215 -4.6662,-0.0591 -4.6662,3.71809 0,5.00605 3.6854,5.49158 5.2832,0.69601 z"
       id="path78" />
    <path
       style="fill:#000000"
       d="m 637.31946,503.02774 c -13.46105,-5.00409 -18.87385,-14.22481 -21.78731,-37.11478 -1.65311,-12.98784 -2.28685,-75.56083 -1.0128,-100 1.71412,-32.8807 4.87534,-45.20397 13.76103,-53.64398 6.60784,-6.27641 11.56748,-8.18195 22.543,-8.66126 9.13997,-0.39914 10.08033,-0.249 16.10855,2.57194 6.31774,2.95643 9.73604,6.31684 12.95266,12.7333 3.08326,6.15043 4.10363,14.84087 4.16816,35.5 0.0617,19.74013 0.13846,20.51067 2.07197,20.78783 1.24873,0.179 4.08449,-1.54026 7.5,-4.5471 11.35517,-9.99651 17.39818,-14.34509 25.54347,-18.38124 6.96214,-3.44988 9.66557,-4.23796 15.91328,-4.63892 4.55863,-0.29255 9.32136,0.0196 12.07869,0.79157 12.81024,3.58665 20.53743,16.26119 18.35002,30.09868 -1.63498,10.34284 -7.88048,19.11694 -22.7932,32.02141 -7.98328,6.90821 -7.84748,8.292 1.56214,15.91793 10.79713,8.75041 22.60877,20.98833 26.60225,27.56232 11.66728,19.20641 7.24723,37.24193 -11.55151,47.13458 -4.62169,2.43212 -6.29079,2.74356 -14.71308,2.74537 -8.06071,0.002 -10.18177,-0.35669 -14,-2.36577 -10.5257,-5.53843 -15.83951,-11.47748 -33.5,-37.4417 -6.05,-8.89462 -11.78619,-16.3202 -12.74709,-16.50127 -2.69565,-0.50796 -3.75291,3.77349 -3.75291,15.19775 0,21.84417 -4.42464,32.14017 -16.5,38.39495 -4.06264,2.10436 -6.68725,2.65177 -14,2.91996 -6.03405,0.22129 -10.25141,-0.13514 -12.79732,-1.08157 z"
       id="path77" />
    <path
       style="fill:#ffffff"
       d="m 636.11678,332.29271 c 3.88571,-7.26439 5.08715,-8.62848 9.64967,-10.9561 4.93193,-2.51609 6.43322,-5.19791 4.17432,-7.45681 -3.80076,-3.80075 -14.29289,1.21122 -18.86391,9.01107 -3.16507,5.40078 -4.27799,11.83164 -2.43243,14.05541 2.14861,2.58891 4.32253,1.23505 7.47235,-4.65357 z"
       id="path76" />
    <path
       style="fill:#ffffff"
       d="m 629.56659,352.97343 c 1.71723,-2.06913 0.92134,-6.97298 -1.1969,-7.37468 -2.33633,-0.44306 -4.1627,4.17999 -2.71787,6.87968 1.23401,2.30577 2.30009,2.44057 3.91477,0.495 z"
       id="path75" />
    <path
       style="fill:#ffffff"
       d="m 712.3639,375.09712 c 6.17755,-5.45815 10.15504,-7.87178 16.61772,-10.08403 4.73501,-1.62084 6.20606,-2.59818 6.44584,-4.28247 0.39625,-2.78337 -2.81155,-4.59712 -6.54016,-3.69793 -8.50841,2.05189 -24.27052,13.29821 -24.27052,17.31711 0,1.73927 1.82857,4.06316 3.19712,4.06316 0.43841,0 2.48591,-1.49213 4.55,-3.31584 z"
       id="path74" />
    <path
       style="fill:#000000"
       d="m 328.61678,503.47783 c -12.4579,-3.80325 -18.39169,-11.97991 -21.49603,-29.62114 -3.60229,-20.47104 -3.89089,-73.77509 -0.47791,-88.27132 3.85849,-16.38849 15.7975,-25.65805 32.97394,-25.60128 17.57735,0.0581 27.83734,8.34094 30.92927,24.96908 2.93143,15.765 2.08725,66.63007 -1.46811,88.45979 -2.70183,16.58904 -8.84482,25.88231 -19.35162,29.27563 -5.47234,1.76736 -16.54907,2.1815 -21.10954,0.78924 z"
       id="path73" />
    <path
       style="fill:#ffffff"
       d="m 324.14259,387.91296 c 2.34987,-4.59493 4.33788,-6.85568 8.4893,-9.65398 5.97557,-4.02787 6.76425,-5.20202 4.95699,-7.37964 -3.7343,-4.49955 -15.16195,1.26012 -19.40868,9.78219 -2.43673,4.88989 -3.38434,11.59718 -1.85457,13.12695 1.99276,1.99275 4.91724,-0.20539 7.81696,-5.87552 z"
       id="path72" />
    <path
       style="fill:#ffffff"
       d="m 317.56659,408.97343 c 1.6842,-2.02933 0.92392,-6.97254 -1.13234,-7.36225 -2.43188,-0.4609 -4.04391,3.07599 -2.84236,6.23631 1.10305,2.90125 2.23517,3.22196 3.9747,1.12594 z"
       id="path71" />
    <path
       style="fill:#000000"
       d="m 1284.9815,504.3239 c -1.7244,-0.49977 -5.3143,-2.37168 -7.9775,-4.15981 -8.8317,-5.92974 -13.0731,-18.78402 -15.4681,-46.87931 -1.3288,-15.58752 -0.6521,-64.84468 1.0143,-73.83153 3.0182,-16.27668 7.6028,-23.93485 17.3145,-28.92187 5.8424,-3.00014 7.4754,-3.38158 14.477,-3.38158 12.7377,0 21.5529,5.08725 26.8812,15.51316 1.3352,2.6125 2.6849,4.75 2.9994,4.75 0.3145,0 2.8818,-2.02075 5.7052,-4.49056 12.8227,-11.21701 30.2811,-15.8361 45.2292,-11.96658 9.578,2.4794 14.5074,5.36734 22.0009,12.88946 14.2197,14.27404 20.4322,32.98499 22.0327,66.35847 1.197,24.96002 -2.1357,50.19097 -8.0436,60.89619 -5.4443,9.86504 -13.107,14.29608 -24.7424,14.30744 -13.1908,0.0129 -23.3965,-7.56801 -27.6559,-20.54324 -2.4408,-7.43504 -4.0579,-24.04361 -4.1334,-42.45118 -0.072,-17.54297 -2.5213,-25.59676 -8.6727,-28.51578 -6.7724,-3.2137 -14.4708,0.56165 -17.867,8.76206 -1.4225,3.4346 -1.9093,8.87529 -2.528,28.25372 -0.741,23.20866 -2.1506,34.30563 -5.0444,39.71285 -2.6833,5.01371 -9.2467,10.77837 -14.5169,12.75021 -5.7823,2.16344 -15.3246,2.59406 -21.0045,0.94788 z"
       id="path70" />
    <path
       style="fill:#ffffff"
       d="m 1347.2779,369.41296 c 2.6017,-1.65 5.5102,-3 6.4633,-3 4.1333,0 5.899,-5.40765 2.0405,-6.2493 -6.3867,-1.39311 -19.1568,7.21739 -16.6704,11.24035 1.04,1.68277 3.2064,1.15459 8.1666,-1.99105 z"
       id="path69" />
    <path
       style="fill:#ffffff"
       d="m 1281.6107,374.9257 c 1.7029,-3.56799 4.2334,-7.28049 5.6235,-8.25 7.0969,-4.94966 7.7259,-5.7528 6.4187,-8.19537 -1.0642,-1.98843 -1.7863,-2.23009 -5.2681,-1.76308 -5.596,0.75058 -12.2339,7.32554 -14.4303,14.2935 -2.0534,6.51384 -1.257,10.40221 2.1303,10.40221 2.0052,0 2.9708,-1.13357 5.5259,-6.48726 z"
       id="path68" />
    <path
       style="fill:#ffffff"
       d="m 1275.6417,394.84749 c 0.9671,-2.54382 -0.1576,-6.43453 -1.8601,-6.43453 -2.461,0 -4.3915,6.43995 -2.4981,8.33333 1.4243,1.42429 3.4264,0.55198 4.3582,-1.8988 z"
       id="path67" />
    <path
       style="fill:#000000"
       d="m 857.82174,503.51873 c -11.4524,-3.95572 -17.8144,-13.09709 -20.95231,-30.10577 -1.55051,-8.40435 -1.74795,-16.53521 -1.71186,-70.5 0.0347,-51.9085 0.28015,-62.19233 1.64676,-69 3.53682,-17.61841 8.92977,-25.99258 20.00423,-31.06259 5.45684,-2.49819 7.53243,-2.8913 15.37895,-2.91269 8.1418,-0.0222 9.6735,0.28356 14.957,2.98567 7.061,3.61111 11.7382,9.306 14.2136,17.30605 1.6112,5.20685 1.7587,11.89039 1.7587,79.68356 0,68.6942 -0.1325,74.5168 -1.8474,81.20775 -3.1795,12.40517 -9.5308,19.94653 -19.2665,22.87655 -6.5291,1.96496 -17.74977,1.74291 -24.18117,-0.47853 z"
       id="path66" />
    <path
       style="fill:#ffffff"
       d="m 855.65897,329.19862 c 3.23345,-5.99625 6.50627,-9.49226 11.08448,-11.84038 8.64736,-4.43517 3.58827,-10.42782 -5.81157,-6.88395 -4.00307,1.50922 -9.24559,6.7625 -11.41525,11.43867 -1.86182,4.01271 -2.51737,10.54915 -1.191,11.87552 1.80691,1.80691 4.94204,-0.15533 7.33334,-4.58986 z"
       id="path65" />
    <path
       style="fill:#ffffff"
       d="m 849.56659,348.97343 c 1.89286,-2.28076 0.92769,-7.06047 -1.42573,-7.06047 -2.63824,0 -4.39714,4.74311 -2.57367,6.94025 1.60581,1.93488 2.47177,1.96091 3.9994,0.12022 z"
       id="path64" />
    <path
       style="fill:#000000"
       d="m 102.33428,504.32138 c -5.257965,-1.2381 -8.953185,-3.29796 -12.778365,-7.12314 -10.64353,-10.64353 -13.25667,-31.32206 -13.36807,-105.78528 -0.0747,-49.95281 0.50731,-59.2729 4.49643,-72 3.08082,-9.82923 7.72901,-15.53407 15.75495,-19.33644 5.877425,-2.78449 7.696055,-3.1622 15.177555,-3.15221 10.12436,0.0135 14.90218,1.50204 20.20839,6.29588 8.14873,7.36189 10.52486,15.74434 11.49019,40.53468 0.45426,11.66602 0.96149,15.97415 1.92425,16.3436 0.71906,0.27593 3.91059,-1.07586 7.09228,-3.00396 8.30886,-5.03519 16.9484,-7.68433 25.00334,-7.66677 31.92714,0.0696 54.55564,24.49956 60.82781,65.67035 2.17779,14.29514 2.25085,47.44821 0.13009,59.03751 -3.84648,21.01987 -12.9573,30.24614 -29.88884,30.26759 -9.97558,0.0126 -17.32971,-2.63422 -22.15322,-7.97326 -7.84916,-8.68808 -8.68555,-12.50454 -9.64647,-44.01697 -0.90646,-29.72614 -1.85928,-35.03117 -7.081,-39.42495 -2.44173,-2.05458 -4.12653,-2.57505 -8.33566,-2.57505 -6.87448,0 -11.25692,2.8596 -14.54152,9.48854 -2.37904,4.80133 -2.49585,5.98432 -3.1595,31.99856 -0.82767,32.44359 -2.03641,37.72217 -10.52602,45.96717 -6.33399,6.1515 -19.83193,8.99601 -30.62662,6.45415 z"
       id="path63" />
    <path
       style="fill:#ffffff"
       d="m 95.647695,325.34697 c 2.15699,-4.60526 5.066175,-7.73291 12.495695,-13.43401 5.22863,-4.01223 -0.0955,-7.96047 -6.90038,-5.11719 -6.786635,2.83564 -13.555745,12.3893 -13.604265,19.20052 -0.026,3.64893 0.57785,4.41667 3.47377,4.41667 1.61971,0 2.75788,-1.27138 4.53518,-5.06599 z"
       id="path62" />
    <path
       style="fill:#ffffff"
       d="m 89.566595,344.97343 c 1.9052,-2.29562 0.92677,-7.06047 -1.44981,-7.06047 -1.45326,0 -2.08873,0.77486 -2.32458,2.83447 -0.58412,5.10116 1.2986,7.20915 3.77439,4.226 z"
       id="path61" />
    <path
       style="fill:#ffffff"
       d="m 178.89956,361.50332 c 0.43053,-0.41576 0.49489,-1.50617 0.14301,-2.42314 -1.01051,-2.63337 -9.79846,-2.29455 -12.57795,0.48494 -1.97194,1.97194 -2.01351,2.25353 -0.49644,3.36284 1.70719,1.24833 11.25239,0.19674 12.93138,-1.42464 z"
       id="path60" />
    <path
       style="fill:#000000"
       d="m 474.08253,550.25058 c -23.17005,-1.9351 -41.48864,-15.38531 -47.57119,-34.92858 -4.96961,-15.9674 0.88433,-29.34897 14.43538,-32.99788 6.18316,-1.66495 11.73066,-0.33339 19.28655,4.62934 7.73841,5.0826 11.75646,6.15158 16.82937,4.47737 11.22984,-3.70618 13.42942,-19.69569 9.97587,-72.51787 -0.86302,-13.2 -1.27624,-27.11345 -0.91825,-30.91878 0.80907,-8.60021 3.75956,-16.67227 7.75901,-21.2274 10.61646,-12.09148 36.36607,-13.02284 46.87335,-1.6954 7.45035,8.03189 8.29212,13.99632 8.23384,58.34158 -0.0523,39.82979 -1.38448,56.91764 -5.79155,74.29083 -9.42897,37.17013 -33.55864,55.51614 -69.11238,52.54679 z"
       id="path59" />
    <path
       style="fill:#ffffff"
       d="m 501.84351,389.66296 c 0.84519,-0.9625 1.86716,-2.875 2.27106,-4.25 1.19393,-4.06463 5.34408,-8.87868 9.4679,-10.98249 4.2824,-2.18473 5.1991,-3.67163 3.864,-6.26751 -1.7652,-3.43212 -11.54186,-1.04567 -16.0247,3.91157 -2.58847,2.8624 -5.75845,10.47538 -5.78303,13.88843 -0.0363,5.04726 3.28339,7.02686 6.20477,3.7 z"
       id="path58" />
    <path
       style="fill:#ffffff"
       d="m 499.43962,402.52761 c 0.39391,-4.11052 -1.08048,-5.97564 -3.28046,-4.14982 -1.5688,1.30198 -2.11704,6.12718 -0.84114,7.40307 1.65907,1.65907 3.81385,-0.0417 4.1216,-3.25325 z"
       id="path57" />
    <path
       style="fill:#000000"
       d="m 1381.5198,739.37227 c -6.5192,-1.0632 -10.1559,-3.2206 -15.0928,-8.9534 -2.3706,-2.7527 -4.5881,-5.0051 -4.9278,-5.0054 -0.3397,-3e-4 -3.5727,1.9812 -7.1846,4.4032 -9.8854,6.6288 -16.4824,8.8292 -28.11,9.3759 -17.0585,0.802 -28.2071,-3.2806 -38.0805,-13.9451 -6.5426,-7.0667 -10.8363,-15.73528 -14.0298,-28.32456 -4.0303,-15.88774 -4.9784,-25.53821 -4.9625,-50.50995 0.014,-21.38427 0.2182,-24.20613 2.2725,-31.34317 2.8415,-9.87217 4.514,-13.18872 9.0727,-17.99156 4.4194,-4.65609 8.8998,-7.04998 16.0194,-8.55931 9.7418,-2.0652 19.214,0.27349 26.0231,6.42512 8.0818,7.30142 10.2329,18.68348 9.3542,49.49623 -0.5935,20.8157 0.5166,27.53241 5.2924,32.01899 3.6621,3.44037 10.2438,3.4186 13.999,-0.0463 5.0479,-4.65771 5.7008,-7.80395 6.5367,-31.5 0.5062,-14.3496 1.3311,-24.23022 2.372,-28.41337 4.4695,-17.96031 15.099,-26.6197 32.543,-26.51121 15.517,0.0965 23.8879,8.01757 27.7532,26.26196 2.3225,10.96216 2.2469,54.2036 -0.1296,74.16262 -1.864,15.65457 -4.5454,27.99371 -7.2185,33.21831 -6.2293,12.1749 -17.8292,17.9711 -31.5021,15.741 z"
       id="path56" />
    <path
       style="fill:#ffffff"
       d="m 1377.4977,616.86723 c 2.3898,-4.62159 4.6617,-7.41956 7.75,-9.54434 4.6122,-3.17324 5.322,-4.87417 2.8801,-6.90083 -4.5161,-3.74803 -14.7267,4.10283 -17.9475,13.79969 -1.9933,6.00131 -1.3841,9.19283 1.7539,9.18751 1.6747,-0.003 2.9693,-1.52507 5.5635,-6.54203 z"
       id="path55" />
    <path
       style="fill:#ffffff"
       d="m 1285.3442,622.6026 c 0.6751,-0.42886 2.652,-3.6306 4.3932,-7.11499 2.492,-4.98696 4.1994,-6.9778 8.0226,-9.35442 5.001,-3.10883 6.0376,-5.49532 3.3543,-7.72229 -2.0013,-1.66096 -6.989,-0.60022 -11.6352,2.47448 -6.2966,4.16692 -11.1933,17.79656 -7.6623,21.32758 1.3963,1.39629 1.8618,1.44772 3.5274,0.38964 z"
       id="path54" />
    <path
       style="fill:#ffffff"
       d="m 1371.4168,638.21296 c 1.6229,-1.62293 1.5168,-5.29215 -0.1941,-6.71207 -1.0763,-0.89327 -1.76,-0.79094 -3,0.44898 -1.7083,1.7083 -1.9819,3.31958 -0.9989,5.8813 0.7218,1.88094 2.5293,2.04552 4.193,0.38179 z"
       id="path53" />
    <path
       style="fill:#ffffff"
       d="m 1282.5666,637.97343 c 1.9052,-2.29562 0.9268,-7.06047 -1.4498,-7.06047 -1.4533,0 -2.0887,0.77486 -2.3246,2.83447 -0.5841,5.10116 1.2986,7.20915 3.7744,4.226 z"
       id="path52" />
    <path
       style="fill:#000000"
       d="m 744.61678,739.33037 c -3.025,-0.3355 -7.3,-1.538 -9.5,-2.6721 -13.7716,-7.0997 -17.27912,-20.8133 -18.2223,-71.24531 -0.81656,-43.66192 1.34135,-57.91102 10.27492,-67.8473 5.64069,-6.27381 12.93086,-9.31492 22.44738,-9.36398 12.93619,-0.0667 20.98029,4.24898 25.42259,13.63923 l 2.63452,5.56893 6.46616,-5.33359 c 7.55168,-6.22898 14.89824,-10.04337 23.68333,-12.29656 11.78582,-3.02282 26.09539,-0.24301 33.13498,6.43688 12.22231,11.59779 8.98765,35.05875 -6.04862,43.87059 -4.52833,2.65378 -5.61487,2.83587 -19.79216,3.31686 -16.69399,0.56639 -19.82315,1.6318 -25.09583,8.54465 -5.09343,6.67782 -6.4042,12.24196 -6.41352,27.22502 -0.012,19.20472 -1.56837,35.03345 -4.1137,41.83648 -2.47377,6.6117 -7.64244,12.7319 -13.10671,15.5196 -4.68462,2.3899 -14.30983,3.6281 -21.77104,2.8006 z"
       id="path51" />
    <path
       style="fill:#ffffff"
       d="m 799.78488,609.8911 c 2.81593,-1.93702 7.06648,-4.01202 9.44565,-4.6111 7.74164,-1.94937 8.79055,-6.86704 1.46469,-6.86704 -8.59853,0 -21.4863,8.88878 -19.68683,13.57814 0.86699,2.25934 3.27767,1.68252 8.77649,-2.1 z"
       id="path50" />
    <path
       style="fill:#ffffff"
       d="m 733.23563,620.64765 c 0.61537,-0.40408 2.25862,-2.98469 3.65166,-5.73469 1.39304,-2.75 4.60907,-6.85742 7.14673,-9.1276 3.10777,-2.78019 4.41547,-4.64478 4.00596,-5.71193 -1.60566,-4.1843 -8.90508,-2.29247 -14.13427,3.66324 -4.56863,5.20338 -6.71461,13.85061 -4.08893,16.47629 1.38402,1.38402 1.87755,1.44677 3.41885,0.43469 z"
       id="path49" />
    <path
       style="fill:#ffffff"
       d="m 730.56659,635.97343 c 1.9052,-2.29562 0.92677,-7.06047 -1.44981,-7.06047 -1.45326,0 -2.08873,0.77486 -2.32457,2.83447 -0.58413,5.10116 1.29859,7.20915 3.77438,4.226 z"
       id="path48" />
    <path
       style="fill:#000000"
       d="m 1149.8705,739.98627 c -13.9625,-2.6616 -25.495,-9.9873 -32.1145,-20.3999 -6.6085,-10.39519 -9.8731,-27.04951 -10.3443,-52.77088 -0.2043,-11.15407 -0.6846,-16.56663 -1.5638,-17.62521 -0.6979,-0.84026 -3.1729,-1.82159 -5.5,-2.18074 -11.2246,-1.73232 -18.3658,-6.2412 -21.5344,-13.59658 -2.2366,-5.19226 -1.9737,-14.65889 0.5418,-19.5 3.8844,-7.47585 9.5637,-11.36955 19.7615,-13.54846 3.3,-0.70509 6.5114,-1.67035 7.1365,-2.14503 0.6251,-0.47468 1.4537,-3.8242 1.8413,-7.44338 2.3951,-22.36522 14.9293,-34.53936 35.5222,-34.5017 19.4297,0.0355 28.7524,10.11906 29.1595,31.53933 0.08,4.19845 0.6879,8.37583 1.3513,9.28308 0.9094,1.24367 3.6399,1.82165 11.0977,2.34909 5.4589,0.38607 11.684,1.45544 13.8915,2.38636 8.7073,3.67186 13.4561,11.11151 13.4561,21.08071 0,14.6559 -9.5258,22.96831 -27.7112,24.18143 -5.2285,0.34879 -9.386,1.13901 -10.3394,1.96522 -1.265,1.09627 -1.7231,4.42715 -2.217,16.1176 -0.6464,15.29766 0.05,21.40252 2.7478,24.10065 1.0613,1.0613 4.3701,1.80016 10.0337,2.24054 10.164,0.79032 14.8967,2.9684 18.9658,8.72844 3.7592,5.32125 4.655,14.02127 2.1258,20.64413 -2.0274,5.3085 -8.1327,11.6559 -13.8667,14.4166 -10.5921,5.0997 -29.3723,7.17 -42.4412,4.6787 z"
       id="path47" />
    <path
       style="fill:#ffffff"
       d="m 1127.5135,581.01221 c 2.7526,-4.50769 4.7837,-6.52 8.6033,-8.52378 3.9477,-2.07096 5,-3.14418 5,-5.09924 0,-5.21217 -10.4406,-2.9097 -16.697,3.68219 -4.7961,5.05334 -7.0883,12.65627 -4.5738,15.17077 2.1149,2.11495 3.9443,0.86717 7.6675,-5.22994 z"
       id="path46" />
    <path
       style="fill:#ffffff"
       d="m 1120.7697,598.97673 c 1.4136,-3.10256 0.4836,-5.56377 -2.1025,-5.56377 -2.1585,0 -3.728,3.79177 -2.6896,6.49776 0.8845,2.30515 3.5532,1.78502 4.7921,-0.93399 z"
       id="path45" />
    <path
       style="fill:#ffffff"
       d="m 1091.7444,618.75127 c 0.7548,-0.91393 3.7663,-2.72215 6.6922,-4.01826 6.3507,-2.81324 6.8955,-5.64587 1.1719,-6.09254 -4.0236,-0.31401 -9.0364,2.38482 -11.5473,6.21703 -2.8291,4.31765 0.4606,7.79544 3.6832,3.89377 z"
       id="path44" />
    <path
       id="path43"
       style="fill:#000000"
       d="m 151.61719,583.92969 c -13.49925,-0.0152 -16.46365,0.28668 -22.96485,2.32812 -25.31869,7.95034 -41.620212,24.43145 -50.097652,50.6543 -2.902031,8.9767 -3.279577,11.53494 -3.691407,25 -0.51797,16.93533 1.181018,26.93583 6.580078,38.71094 9.53043,20.78545 30.164641,36.05238 53.708981,39.74218 9.93051,1.5562 31.85132,0.52241 40.29297,-1.90039 24.9317,-7.1554 41.87232,-24.50214 49.36914,-50.55273 2.00082,-6.9526 2.30093,-10.22573 2.29493,-25 -0.008,-19.85876 -1.23143,-25.95571 -8.02344,-40 -9.03456,-18.68134 -23.58857,-30.80901 -44.01367,-36.67773 -6.73561,-1.93535 -10.33089,-2.28989 -23.45508,-2.30469 z m -0.75586,50.48242 c 9.05956,0 14.52516,3.89335 18.95117,13.5 1.8961,4.1155 2.30469,6.69407 2.30469,14.57227 0,8.67359 -0.28369,10.12347 -3.01367,15.46093 -1.93772,3.78849 -4.45481,6.90321 -7.05469,8.73047 -10.13517,7.12327 -23.29042,3.25072 -29.77344,-8.76367 -1.85422,-3.43625 -2.1582,-5.62079 -2.1582,-15.5 0,-10.90503 0.15521,-11.77921 3,-16.92578 4.15799,-7.5223 9.84661,-11.07422 17.74414,-11.07422 z" />
    <path
       style="fill:#ffffff"
       d="m 142.60621,597.92569 c 1.61949,-1.95136 0.57762,-4.51273 -1.8356,-4.51273 -2.8864,0 -4.71872,2.61442 -3.15383,4.5 1.5819,1.90608 3.41421,1.91075 4.98943,0.0127 z"
       id="path42" />
    <path
       style="fill:#ffffff"
       d="m 105.68278,621.43438 c 4.71753,-6.72531 12.14382,-12.89687 19.11366,-15.88426 5.3145,-2.27789 7.6642,-5.41545 5.76729,-7.70108 -1.69053,-2.03697 -4.68988,-1.77119 -10.44695,0.92572 -12.54415,5.87635 -25.477215,21.04328 -23.139225,27.13596 1.22823,3.20074 4.500285,1.5182 8.705225,-4.47634 z"
       id="path41" />
    <path
       style="fill:#ffffff"
       d="m 95.060075,639.19045 c 2.16628,-3.09279 2.03401,-6.77749 -0.24329,-6.77749 -2.55576,0 -4.2,1.97048 -4.2,5.03333 0,4.46983 1.98767,5.25006 4.44329,1.74416 z"
       id="path40" />
    <path
       style="fill:#000000"
       d="m 946.11681,742.35657 c -9.9404,-1.3424 -23.8743,-5.4928 -30.7572,-9.1613 -19.6477,-10.4722 -22.2257,-34.46162 -4.6849,-43.59533 7.3354,-3.8196 14.8417,-2.86834 28.544,3.61733 15.4895,7.33163 22.9856,7.79978 27.0023,1.68634 1.0507,-1.59926 1.0727,-2.498 0.108,-4.4036 -1.9857,-3.92205 -5.6521,-5.95722 -19.2724,-10.69799 -19.4045,-6.75406 -26.9448,-10.70221 -33.9888,-17.79673 -6.7513,-6.79965 -9.6951,-12.26171 -11.4695,-21.28068 -2.4818,-12.61474 2.5202,-27.74414 12.7016,-38.4183 6.9277,-7.26293 14.2139,-11.82631 24.8265,-15.54887 7.6013,-2.66632 8.8667,-2.80379 25.9904,-2.82363 15.8781,-0.0184 18.9414,0.25167 25.9866,2.29102 11.23809,3.25303 19.25089,7.32116 24.69529,12.53782 6.0499,5.79698 7.9678,9.64624 8.575,17.21045 1.1541,14.37808 -7.0253,23.43986 -21.1575,23.43986 -5.93169,0 -7.38499,-0.47444 -17.16459,-5.60346 -8.2415,-4.32236 -11.7743,-5.63696 -15.4524,-5.75 -7.8244,-0.24046 -11.504,4.70812 -6.7324,9.05418 3.0999,2.82352 4.9496,3.68851 17.3934,8.1341 22.35129,7.9851 35.64509,16.92991 41.70289,28.06005 4.2205,7.75451 5.9978,17.87567 4.6588,26.53023 -1.5952,10.31015 -4.9163,16.69611 -12.7404,24.49761 -11.9162,11.8819 -27.75829,17.7871 -49.76469,18.5502 -6.6,0.2288 -15.15,-0.01 -19,-0.5293 z"
       id="path38" />
    <path
       style="fill:#ffffff"
       d="m 961.41851,596.23043 c 0.1754,-0.92539 -0.5461,-2.14545 -1.6033,-2.71125 -2.5735,-1.3773 -5.5852,0.72224 -4.6251,3.22426 0.8767,2.28471 5.7747,1.88129 6.2284,-0.51301 z"
       id="path37" />
    <path
       style="fill:#ffffff"
       d="m 920.77231,623.16296 c 0.8457,-0.6875 2.5354,-2.92448 3.7548,-4.97106 3.3293,-5.58796 10.5,-11.3788 17.31,-13.97924 6.86,-2.6195 8.8894,-4.75757 6.8492,-7.21588 -4.7128,-5.67864 -25.0734,5.66279 -30.9915,17.26317 -3.0395,5.95789 -2.6892,9.55563 0.9808,10.07406 0.3074,0.0434 1.2509,-0.48355 2.0967,-1.17105 z"
       id="path36" />
    <path
       style="fill:#ffffff"
       d="m 916.61351,634.92164 c 1.2776,-3.36035 0.2389,-5.68436 -2.374,-5.31155 -3.4492,0.49213 -3.5704,7.80287 -0.1294,7.80287 0.8559,0 1.9824,-1.12109 2.5034,-2.49132 z"
       id="path35" />
    <path
       id="path34"
       style="fill:#000000"
       d="m 564.45703,585.5957 c -19.13803,0.64684 -38.89573,9.77805 -50.78906,25.625 -11.01605,14.67806 -15.91542,28.92972 -16.73828,48.69141 -1.37056,32.91519 10.35681,59.0257 32.17187,71.625 15.58423,9.0007 37.00655,9.34493 53.70117,0.86133 5.54768,-2.8191 5.81122,-2.85989 6.79297,-1.02539 0.5617,1.0495 1.0253,6.55091 1.0293,12.22461 0.0181,24.6952 5.5721,37.34048 18.58203,42.30078 5.74885,2.1919 19.6853,1.51195 24.91016,-1.21485 11.17435,-5.8317 15.3009,-16.15204 17.58008,-43.96484 1.73007,-21.1125 1.76704,-115.90508 0.0488,-125.30664 -3.87078,-21.1798 -11.14282,-28.92996 -27.18359,-28.97656 -8.65699,-0.0252 -16.01543,2.89485 -20.38672,8.08984 l -2.48633,2.95508 -5.28711,-3.50391 c -9.20282,-6.10274 -20.46249,-8.76896 -31.94531,-8.38086 z m 6.25,49.98242 c 7.32652,-0.0964 14.48529,4.17158 18.27539,12.07618 1.38669,2.89207 2.82003,7.37963 3.18555,9.97265 1.35769,9.63138 -3.82401,21.32309 -11.31836,25.53516 -8.50991,4.78283 -17.08779,3.49229 -24.22656,-3.64649 -5.65721,-5.65719 -7.47872,-11.25778 -6.78907,-20.86523 0.56736,-7.90376 3.15968,-13.60428 8.19727,-18.02734 3.82388,-3.35742 8.27987,-4.98707 12.67578,-5.04493 z" />
    <path
       style="fill:#ffffff"
       d="m 562.41965,598.79024 c 0.32775,-2.29705 -1.84697,-3.68132 -4.30287,-2.73891 -1.55201,0.59557 -2.03583,3.49247 -0.79115,4.73715 1.42568,1.42568 4.79402,0.10437 5.09402,-1.99824 z"
       id="path33" />
    <path
       style="fill:#ffffff"
       d="m 525.69597,623.29635 c 4.28021,-6.30289 11.25459,-12.0786 19.67081,-16.29002 5.48957,-2.74694 6.6714,-5.16882 3.71827,-7.61971 -4.89734,-4.06442 -24.55581,9.59846 -30.55557,21.2365 -3.11272,6.03791 -2.17705,10.51343 1.88517,9.01718 0.71382,-0.26293 3.09042,-3.11771 5.28132,-6.34395 z"
       id="path32" />
    <path
       style="fill:#ffffff"
       d="m 516.366,640.25032 c 1.51149,-3.15362 0.71387,-5.83736 -1.73489,-5.83736 -2.0568,0 -4.54441,5.17626 -3.63124,7.55595 0.88612,2.30917 3.898,1.34457 5.36613,-1.71859 z"
       id="path31" />
    <path
       id="path29"
       style="fill:#000000"
       d="m 314.24023,586.57422 c -1.42988,-0.0587 -2.91736,-0.0434 -4.46093,0.0488 -15.7752,0.9424 -23.63075,9.02405 -27.98438,28.78906 -1.42705,6.47865 -1.65256,15.19414 -1.66406,64 -0.0136,57.66701 0.62712,70.83219 4.11328,84.42969 3.14152,12.2533 8.37667,19.02403 17.12109,22.14453 2.06362,0.7365 7.12696,1.35404 11.25196,1.37305 20.56211,0.0936 29.82825,-14.10807 29.98047,-45.94727 0.0581,-12.152 0.7921,-14.24088 4.23828,-12.05078 18.42597,11.71 37.57205,13.36339 55.71484,4.80859 8.82651,-4.1619 21.36381,-16.6937 26.27149,-26.25781 15.55564,-30.31479 13.60597,-69.39126 -4.7461,-95.10938 -19.40135,-27.18857 -55.66291,-33.23617 -79.63867,-13.2832 -2.57367,2.14185 -4.91639,3.89258 -5.20703,3.89258 -0.29064,0 -1.69367,-1.98699 -3.11719,-4.41602 -4.62782,-7.89678 -11.86386,-12.01069 -21.87305,-12.42187 z m 50.98438,50.875 c 2.65691,0.0243 5.33763,0.36993 7.07617,1.02539 3.81523,1.4384 9.06153,6.60622 11.48828,11.31641 6.69245,12.98968 -0.0246,31.57866 -12.78906,35.39257 -2.26381,0.67641 -5.41381,1.21914 -7,1.20703 -7.62193,-0.058 -17.03344,-8.08206 -19.40234,-16.54296 -1.62168,-5.79206 -0.7785,-14.95004 1.84961,-20.10157 2.248,-4.40643 7.99251,-9.93541 11.8457,-11.40039 1.64252,-0.62448 4.27473,-0.92082 6.93164,-0.89648 z" />
    <path
       style="fill:#ffffff"
       d="m 358.53804,607.98662 c 0.86831,-0.78449 3.82502,-2.2597 6.57048,-3.27824 5.36122,-1.98897 6.86036,-4.50143 3.69632,-6.19477 -4.2137,-2.25511 -16.18806,3.96842 -16.18806,8.41354 0,1.8845 0.52522,2.48581 2.17126,2.48581 1.19419,0 2.88169,-0.64186 3.75,-1.42634 z"
       id="path28" />
    <path
       style="fill:#ffffff"
       d="m 296.65077,619.872 c 0.70339,-0.84753 2.32416,-3.79708 3.60172,-6.55457 1.27757,-2.75748 4.13217,-6.63787 6.34357,-8.62308 4.26358,-3.8275 5.07528,-6.59185 2.37869,-8.10094 -5.83677,-3.26642 -15.54487,6.60818 -17.01068,17.30241 -0.84276,6.14861 1.77418,9.48556 4.6867,5.97618 z"
       id="path27" />
    <path
       style="fill:#ffffff"
       d="m 294.41785,631.99813 c -0.22622,-2.31815 -0.7983,-3.08517 -2.30107,-3.08517 -1.54362,0 -2.07397,0.77473 -2.32418,3.39514 -0.35665,3.73516 1.43537,5.67244 3.59171,3.88283 0.73474,-0.60978 1.19928,-2.49432 1.03354,-4.1928 z"
       id="path26" />
    <path
       style="fill:#000000"
       d="m 279.20147,973.35567 c -2.15342,-0.5391 -6.87842,-2.4275 -10.5,-4.1965 -8.32829,-4.068 -21.65671,-17.0509 -28.99785,-28.2462 -10.74468,-16.3857 -20.68887,-39.7394 -26.79256,-62.9218 -2.18701,-8.3065 -2.66586,-12.3636 -2.72388,-23.0782 -0.0607,-11.204 0.22051,-13.6287 2.03526,-17.5508 4.68792,-10.1317 13.96913,-16.6469 25.15972,-17.6616 8.56533,-0.7767 15.78505,1.6036 22.1087,7.2891 7.6212,6.8521 10.29585,13.4109 15.07106,36.9574 5.79172,28.5588 9.80063,38.4659 15.56528,38.4659 5.52229,0 9.4504,-7.9947 16.52763,-33.6379 8.44099,-30.5845 13.97847,-39.8178 27.62754,-46.0665 7.37591,-3.3768 18.32599,-3.3903 25.06707,-0.031 6.29599,3.1376 10.79762,9.1559 12.3151,16.4644 5.60138,26.9773 -18.36503,91.617 -43.72761,117.9374 -6.21841,6.4533 -14.01969,11.8656 -21.32015,14.7914 -5.27105,2.1125 -21.41551,2.9869 -27.41531,1.4848 z"
       id="path24" />
    <path
       style="fill:#ffffff"
       d="m 327.78804,852.75797 c 1.00581,-0.9102 1.82874,-2.0667 1.82874,-2.5698 0,-2.4128 6.49935,-9.9109 10.98097,-12.6685 5.28555,-3.2522 6.24305,-5.3813 3.16175,-7.0303 -2.63842,-1.4121 -7.89304,0.2641 -12.34758,3.9386 -4.4854,3.7001 -10.29118,14.8468 -9.32254,17.8987 0.79644,2.5093 3.20135,2.6913 5.69866,0.4313 z"
       id="path23" />
    <path
       style="fill:#ffffff"
       d="m 226.45483,850.53217 c 1.42638,-5.148 4.79938,-9.5794 10.93004,-14.3594 2.7868,-2.1729 2.85216,-4.3575 0.17326,-5.7912 -4.66084,-2.4944 -13.67717,3.0378 -17.04854,10.4607 -1.81967,4.0064 -2.57362,13.5566 -1.18023,14.9499 0.39191,0.392 1.82003,0.5795 3.17359,0.4167 2.04729,-0.2462 2.71165,-1.2005 3.95188,-5.6767 z"
       id="path22" />
    <path
       style="fill:#ffffff"
       d="m 322.37361,867.18867 c 2.08859,-4.2817 -0.50907,-7.6235 -3.55683,-4.5757 -1.29506,1.2951 -1.63441,6.0322 -0.5125,7.1542 1.14848,1.1484 2.74474,0.137 4.06933,-2.5785 z"
       id="path21" />
    <path
       style="fill:#ffffff"
       d="m 224.43904,869.09397 c 0.31307,-2.7221 -1.20232,-5.681 -2.90952,-5.681 -1.79816,0 -2.92474,3.8382 -1.90997,6.5073 1.33114,3.5012 4.38193,2.9781 4.81949,-0.8263 z"
       id="path20" />
    <path
       style="fill:#000000"
       d="m 1177.6168,974.30507 c -17.5693,-1.5402 -27.4893,-5.141 -33.496,-12.1585 -8.8613,-10.3524 -8.4129,-25.9144 1.1531,-40.017 5.956,-8.7806 16.1247,-18.131 37.2111,-34.2166 9.3728,-7.15 17.3033,-13.6424 17.6234,-14.4275 0.32,-0.7852 -0.1049,-2.1143 -0.9442,-2.9537 -1.6081,-1.6081 -0.6211,-1.6764 -27.7107,1.92 -12.478,1.6565 -23.705,-1.8395 -28.287,-8.8086 -5.0114,-7.622 -5.2503,-18.0163 -0.6227,-27.0871 3.8263,-7.5003 12.6955,-12.8977 25.573,-15.5626 19.0306,-3.9382 69.9524,-3.9697 86.4134,-0.053 17.7525,4.2237 25.9291,14.4426 24.8619,31.0718 -0.945,14.7259 -10.007,26.6043 -39.7753,52.1371 -15.0314,12.8928 -17.47,15.7212 -14.9366,17.3243 2.0055,1.269 5.2635,1.1673 19.7299,-0.6158 15.962,-1.9676 24.1194,-0.918 30.4615,3.9193 5.5244,4.2136 7.8256,8.4318 8.4687,15.5234 1.5008,16.5508 -7.4173,27.725 -25.2235,31.6046 -15.1317,3.2969 -56.2777,4.5238 -80.5,2.4003 z"
       id="path19" />
    <path
       style="fill:#ffffff"
       d="m 1160.0775,842.53857 c 4.3659,-4.1291 6.1974,-5.1125 11.9775,-6.4309 7.8715,-1.7955 9.5266,-2.9367 7.9369,-5.4722 -1.6667,-2.6583 -8.986,-2.712 -15.9592,-0.1171 -9.8335,3.6592 -16.1439,11.7666 -12.2159,15.6946 1.8984,1.8984 2.7855,1.5038 8.2607,-3.6744 z"
       id="path18" />
    <path
       style="fill:#ffffff"
       d="m 1153.37,856.25977 c 1.407,-1.407 -0.1411,-4.8468 -2.1814,-4.8468 -1.8958,0 -2.8384,2.9738 -1.4666,4.6267 1.3897,1.6745 2.1479,1.7202 3.648,0.2201 z"
       id="path17" />
    <path
       style="fill:#000000"
       d="m 735.76243,973.84097 c -17.7325,-4.7703 -25.19433,-23.2996 -16.18778,-40.1976 3.01423,-5.6552 11.25896,-14.3963 27.81831,-29.4928 7.65961,-6.9829 7.42857,-7.6873 -6.29423,-19.1886 -16.31831,-13.6767 -21.11887,-20.0947 -23.56627,-31.5066 -4.04345,-18.8539 13.53676,-35.4236 35.88737,-33.8244 12.94973,0.9266 22.89788,7.6853 35.37256,24.032 3.25285,4.2625 6.48304,7.75 7.1782,7.75 1.73575,0 3.75609,-1.8116 7.07775,-6.3465 6.3677,-8.6935 14.67304,-16.4607 21.35651,-19.9728 22.25053,-11.6923 46.00247,-2.1103 47.94776,19.343 1.0628,11.7205 -4.66107,21.4068 -21.80643,36.9019 -11.20721,10.1285 -14.30788,13.9245 -13.37005,16.3685 0.32691,0.8519 5.1723,5.3549 10.76752,10.0066 13.78664,11.4618 21.23433,19.5136 24.43596,26.4181 9.8683,21.2811 -6.6843,41.5847 -32.67536,40.0801 -14.38529,-0.8327 -25.18809,-7.9794 -37.57804,-24.8599 -4.23936,-5.7758 -7.22879,-8.939 -8.44803,-8.939 -1.20065,0 -5.00493,3.91 -10.45946,10.75 -12.30426,15.4297 -19.97621,21.0929 -31.48843,23.2437 -6.89793,1.2887 -9.40467,1.1999 -15.96786,-0.5657 z"
       id="path16" />
    <path
       style="fill:#ffffff"
       d="m 822.6842,845.84657 c 2.54987,-2.5115 7.48541,-6.0218 10.96786,-7.8005 6.68295,-3.4136 7.47667,-4.2722 6.04372,-6.538 -3.03001,-4.7911 -18.78925,3.381 -23.5432,12.2086 -1.89155,3.5123 -1.58321,6.6963 0.64847,6.6963 0.68587,0 3.33329,-2.0549 5.88315,-4.5664 z"
       id="path15" />
    <path
       style="fill:#ffffff"
       d="m 733.35211,846.91297 c 1.58006,-5.508 4.99301,-9.7306 9.31029,-11.5189 3.48285,-1.4426 4.34397,-3.4487 2.34046,-5.4522 -1.94835,-1.9483 -2.98501,-1.9009 -7.88608,0.3611 -4.84098,2.2343 -7.8876,5.4001 -9.95227,10.3415 -2.83379,6.7822 -1.49913,12.2112 2.84109,11.5568 1.34622,-0.203 2.33671,-1.7682 3.34651,-5.2883 z"
       id="path14" />
    <path
       style="fill:#ffffff"
       d="m 734.56708,863.50587 c 0.77901,-1.4556 0.57772,-2.4542 -0.8502,-4.2176 -1.60348,-1.9802 -2.10163,-2.1189 -3.48548,-0.9704 -2.04745,1.6992 -2.03771,2.9701 0.0404,5.2664 2.10014,2.3206 3.02038,2.3038 4.29531,-0.078 z"
       id="path13" />
    <path
       style="fill:#000000"
       d="m 478.52572,973.51657 c -18.37205,-5.878 -35.30112,-29.566 -47.31814,-66.2097 -6.7075,-20.4533 -8.99809,-32.8691 -9.02042,-48.8939 -0.0165,-11.8725 0.26559,-14.2135 2.34024,-19.4184 4.49729,-11.2827 14.27783,-17.7584 26.91497,-17.8204 15.25323,-0.075 25.15211,7.8492 30.27973,24.2388 1.11846,3.575 3.5353,15.5 5.37075,26.5 3.78955,22.7111 4.26857,24.9359 6.18995,28.75 3.24337,6.4383 5.43379,1.4043 9.94037,-22.8448 5.00233,-26.9167 8.3335,-36.4058 15.83051,-45.0943 10.10552,-11.7115 29.76875,-13.444 40.68213,-3.5844 7.86632,7.1067 11.58188,18.1766 14.35679,42.7735 2.02526,17.952 2.958,23.2092 4.97371,28.0334 3.30165,7.902 6.27801,1.7674 10.991,-22.6535 5.94312,-30.795 9.50812,-40.5933 17.77866,-48.8638 6.47957,-6.4796 11.80779,-8.5161 22.28081,-8.5161 8.08471,0 9.49096,0.2886 13.8276,2.8376 9.48644,5.5761 13.23997,15.2509 13.05997,33.6624 -0.29883,30.5649 -14.30005,73.7095 -31.51835,97.1233 -11.35875,15.4459 -22.49065,21.8767 -37.86922,21.8767 -17.82552,0 -30.35346,-9.1856 -42.56355,-31.2081 -2.83349,-5.1105 -5.76892,-9.2919 -6.52317,-9.2919 -0.75426,0 -3.55782,4.05 -6.23015,9 -2.67232,4.95 -6.73175,11.443 -9.02095,14.4289 -5.24596,6.8426 -14.34095,13.6012 -20.93987,15.5609 -6.7167,1.9947 -16.88748,1.8297 -23.81337,-0.3862 z"
       id="path12" />
    <path
       style="fill:#ffffff"
       d="m 612.46957,850.91297 c 2.72334,-5.9569 6.58759,-10.6738 10.73604,-13.1049 2.32606,-1.3632 4.47602,-3.1217 4.77769,-3.9079 0.60224,-1.5694 -1.8183,-4.5001 -3.68795,-4.4652 -2.98295,0.056 -9.61974,4.0826 -12.52328,7.5988 -3.53679,4.2831 -6.81383,13.2207 -5.80827,15.8411 1.02038,2.6591 4.93253,1.4793 6.50577,-1.9619 z"
       id="path11" />
    <path
       style="fill:#ffffff"
       d="m 526.61678,850.42637 c 2.6739,-4.8413 4.75341,-7.1413 8.81046,-9.7446 4.11449,-2.6402 5.24054,-3.8987 5,-5.5882 -0.471,-3.3082 -7.5044,-2.9142 -12.22284,0.6848 -6.67061,5.0879 -12.12678,18.4147 -8.48287,20.7196 2.26521,1.4328 3.21007,0.6008 6.89525,-6.0716 z"
       id="path10" />
    <path
       style="fill:#ffffff"
       d="m 438.93725,851.06527 c 1.7329,-5.4974 4.6972,-9.3687 10.08996,-13.1772 2.19278,-1.5486 2.70916,-2.5229 2.19528,-4.1421 -2.27951,-7.182 -16.43175,0.4676 -19.43986,10.5078 -1.75867,5.8699 -1.50138,11.872 0.55833,13.0247 2.7641,1.5469 4.73547,-0.31 6.59629,-6.2132 z"
       id="path9" />
    <path
       style="fill:#ffffff"
       d="m 606.667,867.78087 c 1.79505,-4.7213 -0.80581,-8.2123 -3.85022,-5.1679 -1.2834,1.2834 -1.63817,6.0285 -0.53333,7.1333 1.43641,1.4364 3.43002,0.5426 4.38355,-1.9654 z"
       id="path8" />
    <path
       style="fill:#ffffff"
       d="m 519.43962,868.53577 c 0.17757,-1.8574 -0.14086,-3.8408 -0.70762,-4.4076 -1.71806,-1.718 -4.11522,1.181 -4.11522,4.9768 0,3.0028 0.29001,3.4059 2.25,3.1275 1.74533,-0.2478 2.32241,-1.077 2.57284,-3.6967 z"
       id="path7" />
    <path
       style="fill:#ffffff"
       d="m 436.43904,870.09397 c 0.31307,-2.7221 -1.20232,-5.681 -2.90952,-5.681 -1.79816,0 -2.92474,3.8382 -1.90997,6.5073 1.33114,3.5012 4.38193,2.9781 4.81949,-0.8263 z"
       id="path6" />
    <path
       style="fill:#000000"
       d="m 963.90971,1021.9672 c -20.2613,-4.6061 -32.891,-18.2995 -30.813,-33.40813 2.1221,-15.4294 15.2847,-22.4498 32.3647,-17.2619 8.143,2.4733 11.9653,2.6399 16.5568,0.7214 4.3035,-1.7981 6.5986,-5.1426 6.5986,-9.6159 0,-4.3466 -2.1632,-6.9241 -14.5,-17.2773 -19.044,-15.982 -31.9891,-35.0548 -39.947,-58.8562 -13.3873,-40.0401 -2.2648,-67.1228 26.9594,-65.6449 6.4705,0.3272 9.0406,0.9648 13.3555,3.3133 10.5559,5.7453 14.8204,13.731 22.1181,41.4187 2.8186,10.6938 6.04139,21.5742 7.16179,24.1787 2.2659,5.2671 5.1632,8.4219 6.8035,7.4081 2.3418,-1.4473 4.9941,-8.6762 7.5456,-20.5659 6.3786,-29.7236 8.7342,-36.7193 14.918,-44.3052 7.8476,-9.6268 20.9808,-13.7209 32.8997,-10.2559 7.1224,2.0705 11.7608,6.0931 14.8053,12.8396 3.4835,7.7193 3.2975,25.3407 -0.4525,42.8491 -6.1425,28.6794 -20.6012,75.0063 -29.1751,93.4792 -9.0106,19.4138 -22.0023,35.56153 -34.7968,43.24983 -10.4221,6.2627 -18.64339,8.4458 -33.19549,8.8148 -8.71,0.2209 -15.0484,-0.136 -19.2071,-1.0814 z"
       id="path5" />
    <path
       style="fill:#ffffff"
       d="m 1038.7971,853.66297 c 0.8197,-0.9625 2.0643,-3.2012 2.7659,-4.9749 1.1754,-2.9714 6.4831,-8.3833 12.2036,-12.443 1.9228,-1.3646 2.1498,-2.0011 1.2481,-3.5 -3.5722,-5.938 -15.3563,1.144 -19.867,11.9396 -3.2794,7.8489 -0.73,14.1209 3.6494,8.9783 z"
       id="path4" />
    <path
       style="fill:#ffffff"
       d="m 943.41391,856.15737 c 0.5732,-0.6906 1.3671,-2.6031 1.7644,-4.25 1.3933,-5.7762 4.4664,-10.4176 8.932,-13.49 4.641,-3.193 5.3856,-4.7253 3.3065,-6.8044 -3.3905,-3.3905 -12.6346,0.5601 -16.6991,7.1366 -3.1926,5.1657 -4.4969,13.4101 -2.5836,16.3302 1.6932,2.5841 3.6911,2.9919 5.2798,1.0776 z"
       id="path3" />
    <path
       style="fill:#ffffff"
       d="m 1034.6504,867.82447 c 1.1565,-3.0417 0.266,-5.4115 -2.0336,-5.4115 -2.8714,0 -4.4191,7.3243 -1.75,8.2817 1.7593,0.6311 2.7334,-0.1078 3.7836,-2.8702 z"
       id="path2" />
    <path
       style="fill:#ffffff"
       d="m 942.94261,871.25827 c 1.4786,-2.3441 -0.019,-6.8453 -2.2775,-6.8453 -2.4426,0 -3.3928,2.9637 -2.0676,6.4492 1.0805,2.842 2.7086,2.9904 4.3451,0.3961 z"
       id="path1" />
  </g>
</svg>
